<?xml version="1.0" encoding="UTF-8"?>
<svg width="6px" height="18px" viewBox="0 0 6 18" version="1.1" xmlns="http://www.w3.org/2000/svg" xmlns:xlink="http://www.w3.org/1999/xlink">
    <!-- Generator: Sketch 54.1 (76490) - https://sketchapp.com -->
    <title>chart-2</title>
    <desc>Created with Sketch.</desc>
    <g id="Symbols" stroke="none" stroke-width="1" fill="none" fill-rule="evenodd">
        <path d="M2,4 L2,1 C2,0.44771525 2.44771525,1.01453063e-16 3,0 C3.55228475,-1.01453063e-16 4,0.44771525 4,1 L4,4 L5,4 C5.55228475,4 6,4.44771525 6,5 L6,13 C6,13.5522847 5.55228475,14 5,14 L4,14 L4,17 C4,17.5522847 3.55228475,18 3,18 C2.44771525,18 2,17.5522847 2,17 L2,14 L1,14 C0.44771525,14 6.76353751e-17,13.5522847 0,13 L0,5 C-6.76353751e-17,4.44771525 0.44771525,4 1,4 L2,4 Z" id="chart-2" fill="#BB8961"></path>
    </g>
</svg>