<?xml version="1.0" encoding="UTF-8"?>
<svg width="42px" height="37px" viewBox="0 0 42 37" version="1.1" xmlns="http://www.w3.org/2000/svg" xmlns:xlink="http://www.w3.org/1999/xlink">
    <!-- Generator: Sketch 54.1 (76490) - https://sketchapp.com -->
    <title>Combined Shape</title>
    <desc>Created with Sketch.</desc>
    <g id="Symbols" stroke="none" stroke-width="1" fill="none" fill-rule="evenodd">
        <g id="Icon/Final-Step-990-Copy-5" transform="translate(-60.000000, -72.000000)" fill="#9A6D48">
            <g id="Group-Copy" transform="translate(48.000000, 42.000000)">
                <g id="Group-3" transform="translate(12.000000, 30.000000)">
                    <path d="M6.82121026e-13,25 L42,25 L42,29 L6.82121026e-13,29 L6.82121026e-13,25 Z M6.82121026e-13,33 L30,33 L30,37 L6.82121026e-13,37 L6.82121026e-13,33 Z M42,-3.55271368e-14 L42,10 L38.318175,6.31817498 L24.1430898,19.6073173 L12.0906749,10.5680062 L1.77635684e-15,21.0465911 L0,15.7534089 L11.9093251,5.43199382 L23.8569102,14.3926827 L35.4882766,3.48827663 L32,-3.55271368e-14 L42,-3.55271368e-14 Z" id="Combined-Shape"></path>
                </g>
            </g>
        </g>
    </g>
</svg>