<?xml version="1.0" encoding="UTF-8"?>
<svg width="88px" height="88px" viewBox="0 0 88 88" version="1.1" xmlns="http://www.w3.org/2000/svg" xmlns:xlink="http://www.w3.org/1999/xlink">
    <!-- Generator: Sketch 54.1 (76490) - https://sketchapp.com -->
    <title>Group 2</title>
    <desc>Created with Sketch.</desc>
    <defs>
        <path d="M4,0 L60,0 C62.209139,-4.05812251e-16 64,1.790861 64,4 L64,36 C64,38.209139 62.209139,40 60,40 L4,40 C1.790861,40 2.705415e-16,38.209139 0,36 L0,4 C-2.705415e-16,1.790861 1.790861,4.05812251e-16 4,0 Z M26,3 C24.8954305,3 24,3.8954305 24,5 C24,6.1045695 24.8954305,7 26,7 L38,7 C39.1045695,7 40,6.1045695 40,5 C40,3.8954305 39.1045695,3 38,3 L26,3 Z" id="path-1"></path>
    </defs>
    <g id="Symbols" stroke="none" stroke-width="1" fill="none" fill-rule="evenodd">
        <g id="Group-2">
            <rect id="Combined-Shape" fill="#BB8961" x="16" y="47" width="56" height="41" rx="4"></rect>
            <polygon id="Rectangle" fill="#D8D8D8" points="5.32907052e-14 2.13162821e-14 8 2.13162821e-14 48 50 40 50"></polygon>
            <g id="Group" transform="translate(12.000000, 44.000000)">
                <mask id="mask-2" fill="white">
                    <use xlink:href="#path-1"></use>
                </mask>
                <use id="Combined-Shape" fill="#FCFCFC" fill-rule="nonzero" xlink:href="#path-1"></use>
                <path d="M11.0275005,15.8357371 C11.2618391,13.2788726 13.5018409,12 16.0003043,12 C18.4979062,12 20.737908,13.2788726 20.9731081,15.8357371 C21.0945852,17.1709788 20.8016619,20.3294066 20.1520614,21.5254872 C19.5851686,22.5718375 18.2627061,23.575911 16.7980895,23.9194099 C16.0890429,24.0268634 15.9115658,24.0268634 15.2025191,23.9194099 C13.737041,23.575911 12.4145785,22.5718375 11.8476857,21.5254872 C11.1980852,20.3294066 10.9043004,17.1709788 11.0275005,15.8357371 Z M25.9930237,32 L6.00694739,32 C5.56415043,22.679871 26.436747,22.6534716 25.9930237,32 Z" id="Combined-Shape" fill="#BB8961" mask="url(#mask-2)"></path>
                <rect id="Rectangle" fill="#EEEEEE" mask="url(#mask-2)" x="32" y="0" width="32" height="40"></rect>
                <path d="M46.5703501,17.7651317 C48.0039634,17.7651317 49.1771256,18.4412829 49.7312447,19.5683259 L54,17.1210539 C52.5988487,14.6420815 49.7961687,13 46.6352741,13 C41.6821742,13 38,16.7026084 38,21.4998135 C38,26.2973916 41.6821742,30 46.6352741,30 C49.8290082,30 52.5988487,28.3579185 54,25.8464998 L49.7312447,23.4316741 C49.2099651,24.5587171 48.0039634,25.2348683 46.5703501,25.2348683 C44.4520147,25.2348683 42.8877984,23.7214532 42.8877984,21.4998135 C42.8877984,19.2785468 44.4520147,17.7651317 46.5703501,17.7651317" id="Fill-12" fill="#121212" fill-rule="nonzero" mask="url(#mask-2)"></path>
                <circle id="Oval" fill="#D4A077" mask="url(#mask-2)" cx="54.5" cy="21.5" r="2.5"></circle>
                <rect id="Rectangle" fill="#EEEEEE" mask="url(#mask-2)" x="24" y="3" width="16" height="4" rx="2"></rect>
            </g>
            <polygon id="Rectangle-Copy-3" fill="#FCFCFC" fill-rule="nonzero" transform="translate(64.000000, 25.000000) scale(-1, 1) translate(-64.000000, -25.000000) " points="40 2.13162821e-14 48 2.13162821e-14 88 50 80 50"></polygon>
        </g>
    </g>
</svg>