<?xml version="1.0" encoding="UTF-8"?>
<svg width="80px" height="45px" viewBox="0 0 80 45" version="1.1" xmlns="http://www.w3.org/2000/svg" xmlns:xlink="http://www.w3.org/1999/xlink">
    <!-- Generator: Sketch 54.1 (76490) - https://sketchapp.com -->
    <title>Mask</title>
    <desc>Created with Sketch.</desc>
    <defs>
        <path d="M0,9 L8,9 L8,45 L0,45 L0,9 Z M12,6 L20,6 L20,45 L12,45 L12,6 Z M24,0 L32,0 L32,45 L24,45 L24,0 Z M36,6 L44,6 L44,45 L36,45 L36,6 Z M48,3 L56,3 L56,45 L48,45 L48,3 Z M60,9 L68,9 L68,45 L60,45 L60,9 Z M72,0 L80,0 L80,45 L72,45 L72,0 Z" id="path-1"></path>
    </defs>
    <g id="Symbols" stroke="none" stroke-width="1" fill="none" fill-rule="evenodd">
        <g id="Icon/Step-9-Copy-2" transform="translate(-50.000000, -79.000000)">
            <g id="Group" transform="translate(48.000000, 48.000000)">
                <g id="Combined-Shape-Copy" transform="translate(2.000000, 31.000000)">
                    <mask id="mask-2" fill="white">
                        <use xlink:href="#path-1"></use>
                    </mask>
                    <use id="Mask" fill="#D8D8D8" xlink:href="#path-1"></use>
                </g>
            </g>
        </g>
    </g>
</svg>