<?xml version="1.0" encoding="UTF-8"?>
<svg width="27px" height="25px" viewBox="0 0 27 25" version="1.1" xmlns="http://www.w3.org/2000/svg" xmlns:xlink="http://www.w3.org/1999/xlink">
    <!-- Generator: Sketch 54.1 (76490) - https://sketchapp.com -->
    <title>Path 4</title>
    <desc>Created with Sketch.</desc>
    <defs>
        <path d="M1.77635684e-14,24.5098039 C1.52655666e-14,16.6666667 2,10.7843137 6,6.8627451 C10,2.94117647 17,0.653594771 27,0 C27,9.80392157 24.6666667,16.6666667 20,20.5882353 C15.3333333,24.5098039 8.66666667,25.8169935 1.77635684e-14,24.5098039 Z" id="path-1"></path>
    </defs>
    <g id="Symbols" stroke="none" stroke-width="1" fill="none" fill-rule="evenodd">
        <g id="Icon/Step-3-Copy" transform="translate(-92.000000, -62.000000)">
            <g id="Group-2" transform="translate(54.000000, 32.495689)">
                <g id="Path-4" transform="translate(38.000000, 29.504311)">
                    <mask id="mask-2" fill="white">
                        <use xlink:href="#path-1"></use>
                    </mask>
                    <use id="Mask" fill="#D4A077" xlink:href="#path-1"></use>
                    <path d="M0,25 C6.90374008,21.2002407 11.9037401,17.8669073 15,15 C18.0962599,12.1330927 22.0962599,7.13309266 27,-3.55271368e-15 L27,25 L0,25 Z" fill="#BB8961" mask="url(#mask-2)"></path>
                    <path d="M7.98291713,18.8120884 L7.5,13.5 C7.45317124,12.9848837 7.83279333,12.5293372 8.34790966,12.4825084 C8.74449722,12.446455 9.12051561,12.6651343 9.28530145,13.0276632 L11.6481131,18.2258489 C11.8509869,18.6721711 11.7003733,19.1997511 11.2924468,19.4717021 L9.93026051,20.3798263 C9.47671464,20.6821902 8.86392869,20.559633 8.56156478,20.1060872 C8.53886358,20.0720354 8.51830229,20.0366046 8.5,20 L8.08438315,19.1687663 C8.02861971,19.0572394 7.99420611,18.9362672 7.98291713,18.8120884 Z" id="Path-3" fill="#BB8961" mask="url(#mask-2)"></path>
                    <path d="M14.9829171,13.8120884 L14.5,8.5 C14.4531712,7.98488367 14.8327933,7.52933717 15.3479097,7.48250841 C15.7444972,7.446455 16.1205156,7.66513435 16.2853015,8.0276632 L18.6481131,13.2258489 C18.8509869,13.6721711 18.7003733,14.1997511 18.2924468,14.4717021 L16.9302605,15.3798263 C16.4767146,15.6821902 15.8639287,15.559633 15.5615648,15.1060872 C15.5388636,15.0720354 15.5183023,15.0366046 15.5,15 L15.0843831,14.1687663 C15.0286197,14.0572394 14.9942061,13.9362672 14.9829171,13.8120884 Z" id="Path-3-Copy" fill="#BB8961" mask="url(#mask-2)"></path>
                </g>
            </g>
        </g>
    </g>
</svg>