<?xml version="1.0" encoding="UTF-8"?>
<svg width="72px" height="89px" viewBox="0 0 72 89" version="1.1" xmlns="http://www.w3.org/2000/svg" xmlns:xlink="http://www.w3.org/1999/xlink">
    <!-- Generator: Sketch 54.1 (76490) - https://sketchapp.com -->
    <title>Group 4</title>
    <desc>Created with Sketch.</desc>
    <g id="Symbols" stroke="none" stroke-width="1" fill="none" fill-rule="evenodd">
        <g id="Icon/Final-Step-990-Copy-5" transform="translate(-48.000000, -42.000000)">
            <g id="Group-Copy" transform="translate(48.000000, 42.000000)">
                <g id="Group-4">
                    <path d="M64,3 L72,3 L72,96 L64,96 L64,99 L4,99 C1.790861,99 2.705415e-16,97.209139 0,95 L0,7 C-2.705415e-16,4.790861 1.790861,3 4,3 L64,3 Z" id="Combined-Shape" fill="#D4A077"></path>
                    <rect id="Rectangle" fill="#BB8961" x="64" y="5" width="6" height="84"></rect>
                    <g id="Group-2" transform="translate(39.000000, 0.000000)">
                        <polygon id="Path-35" fill="#BB8961" points="0 24 2 24 7 20 7 17 0 22"></polygon>
                        <path d="M4,0 L14,0 L14,24 L7,18.125 L0,24 L0,4 C-2.705415e-16,1.790861 1.790861,4.05812251e-16 4,0 Z" id="Rectangle" fill="#FCFCFC" fill-rule="nonzero"></path>
                        <rect id="Rectangle" fill="#BB8961" x="14" y="3" width="2" height="21"></rect>
                        <path d="M2,0 L14,0 L14,3 L0,3 L0,2 C-1.3527075e-16,0.8954305 0.8954305,2.02906125e-16 2,0 Z" id="Rectangle" fill="#D8D8D8"></path>
                        <path d="M14,0 L16,0 C17.1045695,-2.02906125e-16 18,0.8954305 18,2 L18,3 L14,3 L14,0 Z" id="Rectangle-Copy-3" fill="#C4C4C4"></path>
                    </g>
                </g>
            </g>
        </g>
    </g>
</svg>