<?xml version="1.0" encoding="UTF-8"?>
<svg width="98px" height="54px" viewBox="0 0 98 54" version="1.1" xmlns="http://www.w3.org/2000/svg" xmlns:xlink="http://www.w3.org/1999/xlink">
    <!-- Generator: Sketch 54.1 (76490) - https://sketchapp.com -->
    <title>Combined Shape</title>
    <desc>Created with Sketch.</desc>
    <g id="Symbols" stroke="none" stroke-width="1" fill="none" fill-rule="evenodd">
        <g id="Icon/Step-3-Copy" transform="translate(-42.000000, -86.000000)" fill="#EEEEEE">
            <path d="M91.1458204,139.227716 C89.2134137,138.04724 87.2237889,136.970496 87.015811,134.87309 C86.9692843,134.403467 87.0271877,133.949625 87.1665119,133.516346 C87.5950402,132.175785 88.7931257,131.031534 90.0307677,130.221466 C91.6689055,129.15002 93.5591474,128.310055 94.6882046,126.725605 C94.808127,126.557109 94.9173408,126.384786 95.0156487,126.206203 C95.5507162,125.250988 95.8030791,124.169634 95.9785382,123.06354 C96.0403953,122.677286 96.0921328,122.28821 96.1429049,121.899818 C96.1847612,121.583386 96.2253296,121.267553 96.2712728,120.955767 C96.3107905,120.683828 96.3561796,120.410023 96.4115627,120.136027 C96.7529545,118.431117 97.4246709,116.727803 98.873675,115.815573 C98.9037025,115.794333 98.9367849,115.775511 98.9691759,115.755741 C99.4732241,115.45783 100.019304,115.282246 100.587392,115.200169 C100.657101,115.188388 100.726589,115.180889 100.7971,115.172807 C101.968958,115.045319 103.221021,115.287597 104.376372,115.63356 C104.452082,115.656031 104.526607,115.679042 104.601191,115.702154 C106.445085,116.280735 108.313277,117.065591 110.2392,116.853425 C110.796999,116.792482 111.290281,116.602302 111.734135,116.317729 C112.050164,116.115669 112.340779,115.865336 112.612695,115.578191 C114.070821,114.039346 115.00071,111.43662 116.310521,109.477487 C116.646565,108.972763 117.008825,108.510224 117.411224,108.121092 C117.585032,107.952499 117.766202,107.796473 117.956125,107.657717 C121.029488,105.403205 126.048648,105.290014 128.23559,108.303078 C128.297284,108.386471 128.356878,108.473739 128.413356,108.562915 C128.772675,109.12775 129.012565,109.747937 129.152036,110.393222 C129.43618,111.704558 129.306307,113.12599 128.922327,114.428605 C128.916297,114.44745 128.910857,114.467301 128.904871,114.485988 C128.328062,116.40701 127.259958,118.146317 126.282246,119.906579 C125.547761,121.228865 124.896737,122.863304 125.004362,124.290355 C125.058156,125.029023 125.315391,125.710518 125.868918,126.265122 C126.684587,127.083027 127.85094,127.290429 129.043976,127.184403 C129.15074,127.175264 129.258419,127.162791 129.36486,127.148206 C129.979681,127.065946 130.593895,126.907359 131.16355,126.714206 C131.739282,126.51907 132.321591,126.296467 132.908673,126.099029 C133.22545,125.992652 133.544164,125.892144 133.863454,125.809403 L133.864478,125.808821 C134.773462,125.571793 135.688343,125.46371 136.598634,125.677397 C138.79037,126.190503 140.170189,128.577173 139.983078,130.787846 C139.794355,132.998097 138.330186,134.952966 136.517609,136.277008 C136.235357,136.483576 135.944131,136.677154 135.646131,136.859171 C134.036651,137.848765 132.228578,138.513834 130.442883,139.16885 L120.990073,140 C120.76973,139.997088 120.548208,139.992165 120.326686,139.987243 C120.080852,139.982079 119.835614,139.975369 119.588601,139.968194 C119.275491,139.95962 118.962271,139.948293 118.649384,139.935437 C118.526492,139.9315 118.40285,139.926515 118.280393,139.92099 C118.089417,139.912495 117.8985,139.9041 117.707583,139.895705 C117.463635,139.883971 117.219687,139.872238 116.976175,139.858916 C114.580717,139.734901 112.162971,139.548368 109.748186,139.367121 C109.549146,139.352088 109.351292,139.336515 109.1529,139.322587 C108.965424,139.307945 108.778596,139.294409 108.59112,139.279766 C107.771907,139.219212 106.954897,139.160085 106.140028,139.10671 C106.034402,139.098446 105.929322,139.091345 105.824992,139.085291 C105.749269,139.079583 105.67242,139.074516 105.596262,139.070396 C105.355335,139.054262 105.116713,139.039499 104.878092,139.024735 C104.578596,139.0056 104.279416,138.9891 103.981157,138.972076 C103.740385,138.958536 103.499236,138.946684 103.259052,138.93415 C103.118256,138.926459 102.978108,138.919874 102.836775,138.91383 C102.636445,138.90382 102.437728,138.894233 102.238634,138.886335 C102.057506,138.877866 101.876104,138.871027 101.696316,138.864611 C101.397732,138.851927 101.100052,138.842884 100.802918,138.835006 C100.72187,138.832327 100.641845,138.829067 100.561385,138.827394 C100.342015,138.821248 100.122644,138.815101 99.9033835,138.811707 C99.719293,138.807738 99.5357915,138.804775 99.3523924,138.801754 C99.2251553,138.800423 99.0962897,138.798411 98.9696417,138.798085 C98.8567517,138.796768 98.7455339,138.795975 98.633233,138.795663 C98.3783672,138.794431 98.1240904,138.794204 97.8709915,138.795988 C97.7675145,138.796286 97.6630722,138.797267 97.560243,138.79867 C97.3962587,138.799884 97.231309,138.80178 97.0668459,138.80474 C96.9405129,138.807051 96.8150428,138.808736 96.6898878,138.813057 C96.5633935,138.815325 96.437547,138.818699 96.312392,138.82302 C95.9645276,138.832745 95.618548,138.845687 95.27337,138.862329 C95.1442896,138.867409 95.015857,138.873595 94.889788,138.881251 C94.7283876,138.889438 94.5688641,138.898033 94.4092895,138.909337 C94.2486394,138.918573 94.0901915,138.929236 93.9312648,138.941646 C93.8057848,138.950308 93.6791781,138.95961 93.5549349,138.970382 C93.3713777,138.98434 93.1873263,138.999786 93.0062864,139.017808 C92.8239072,139.033776 92.6422194,139.050692 92.4607007,139.07046 L92.2884257,139.088991 C92.1986611,139.098242 92.1096469,139.108541 92.0204713,139.118798 C91.7274511,139.15174 91.4362567,139.187799 91.1458204,139.227716 Z M54.553564,107.058781 C47.3261123,101.492851 44.5154366,97.1196201 46.121537,93.9390886 C48.5306876,89.1682914 54.553564,83.9999277 58.1672899,86.7828928 C60.5764405,88.6382028 61.6471741,95.3968322 61.3794907,107.058781 C61.6471741,99.9025852 63.922483,96.3244872 68.2054173,96.3244872 C72.4883517,96.3244872 73.0237185,102.155462 69.8115177,113.81741 C77.8420196,108.516525 82.9280042,107.721392 85.0694714,111.432012 C88.2816721,116.997942 87.8354106,130.559496 81.0542204,137.27383 C77.8420196,140.454362 70.4807262,140.851928 58.9703401,138.466529 C50.4044714,135.816087 45.1846451,131.840422 43.3108613,126.539536 C41.4370776,121.238651 44.78312,118.455686 53.3489888,118.190641 C45.0508034,116.335331 41.3032359,113.1548 42.1062861,108.649047 C42.9093362,104.143294 47.0584289,103.613205 54.553564,107.058781 Z" id="Combined-Shape"></path>
        </g>
    </g>
</svg>