<?xml version="1.0" encoding="UTF-8"?>
<svg width="22px" height="15px" viewBox="0 0 22 15" version="1.1" xmlns="http://www.w3.org/2000/svg" xmlns:xlink="http://www.w3.org/1999/xlink">
    <!-- Generator: Sketch 54.1 (76490) - https://sketchapp.com -->
    <title>Combined Shape</title>
    <desc>Created with Sketch.</desc>
    <g id="Symbols" stroke="none" stroke-width="1" fill="none" fill-rule="evenodd">
        <g id="Icon/Step-7-Copy" transform="translate(-122.000000, -66.000000)" fill="#EEEEEE">
            <g id="Group-2" transform="translate(122.000000, 66.000000)">
                <path d="M5.40335698,3.02929279 C6.16815511,1.24775766 7.93836285,0 10,0 C12.7614237,0 15,2.23857625 15,5 C15,5.34246584 14.9655697,5.67689006 14.8999819,6 L17.5,6 C19.9852814,6 22,8.01471863 22,10.5 C22,12.9852814 19.9852814,15 17.5,15 L7.5,15 C7.26340008,15 7.03106493,14.9817403 6.80432687,14.9465534 C6.54123367,14.9818018 6.27274204,15 6,15 C2.6862915,15 0,12.3137085 0,9 C0,5.887643 2.36975445,3.32877181 5.40335698,3.02929279 Z" id="Combined-Shape"></path>
            </g>
        </g>
    </g>
</svg>