<?xml version="1.0" encoding="UTF-8"?>
<svg width="30px" height="17px" viewBox="0 0 30 17" version="1.1" xmlns="http://www.w3.org/2000/svg" xmlns:xlink="http://www.w3.org/1999/xlink">
    <!-- Generator: Sketch 54.1 (76490) - https://sketchapp.com -->
    <title>Path 4</title>
    <desc>Created with Sketch.</desc>
    <defs>
        <path d="M0.873015648,20.5655283 C0.873015648,14.2910185 2.50264528,9.58513615 5.76190454,6.44788125 C9.0211638,3.31062635 14.7248675,1.48056099 22.8730156,0.957685173 C22.8730156,8.80082243 20.9717811,14.2910185 17.1693119,17.4282734 C13.3668428,20.5655283 7.93474404,21.6112799 0.873015648,20.5655283 Z" id="path-1"></path>
    </defs>
    <g id="Symbols" stroke="none" stroke-width="1" fill="none" fill-rule="evenodd">
        <g id="Icon/Step-5-Copy" transform="translate(-44.000000, -101.000000)">
            <g id="Group-3" transform="translate(37.000000, 47.903310)">
                <g id="Group-2-Copy" transform="translate(36.000000, 41.500000) scale(-1, 1) translate(-36.000000, -41.500000) ">
                    <g id="Path-4" transform="translate(49.687280, 60.506983) rotate(36.000000) translate(-49.687280, -60.506983) translate(38.187280, 50.006983)">
                        <mask id="mask-2" fill="white">
                            <use xlink:href="#path-1"></use>
                        </mask>
                        <use id="Mask" fill="#C4C4C4" xlink:href="#path-1"></use>
                        <path d="M15.1960455,10.8405783 C17.3497426,8.48549843 19.9087326,5.1912007 22.8730156,0.957685173 L22.8730156,20.9576852 L0.873015648,20.9576852 C3.73550583,19.4108404 6.19632741,17.9606172 8.25548039,16.6070155 L8.06859311,16.2476169 C8.00916323,16.1333287 7.97237454,16.0086346 7.96024959,15.8803899 L7.57860838,11.8438001 C7.53985329,11.4338906 7.84073343,11.070176 8.25064298,11.0314209 C8.56313856,11.0018759 8.86066647,11.1712307 8.99481629,11.4550092 L10.6454365,14.9467059 C11.5657688,14.2662141 12.3711684,13.6133695 13.0616354,12.9881719 C13.0532461,12.9765168 13.0451232,12.9645705 13.0372805,12.952336 C13.0243835,12.9322167 13.0124039,12.9115239 13.0013785,12.8903211 L12.6913632,12.2941379 C12.6319333,12.1798496 12.5951446,12.0551555 12.5830197,11.9269108 L12.2013785,7.89032107 C12.1626234,7.48041153 12.4635035,7.11669698 12.8734131,7.07794189 C13.1859087,7.04839685 13.4834366,7.21775165 13.6175864,7.50153012 L15.1960455,10.8405783 Z" id="Combined-Shape" fill="#A0A0A0" mask="url(#mask-2)"></path>
                    </g>
                </g>
            </g>
        </g>
    </g>
</svg>