<?xml version="1.0" encoding="UTF-8"?>
<svg width="76px" height="76px" viewBox="0 0 76 76" version="1.1" xmlns="http://www.w3.org/2000/svg" xmlns:xlink="http://www.w3.org/1999/xlink">
    <!-- Generator: Sketch 54.1 (76490) - https://sketchapp.com -->
    <title>Combined Shape</title>
    <desc>Created with Sketch.</desc>
    <g id="Symbols" stroke="none" stroke-width="1" fill="none" fill-rule="evenodd">
        <g id="Icon/Step-4-Copy-6" transform="translate(-52.000000, -52.000000)" fill="#C4C4C4">
            <path d="M99.6370393,54.0340795 C100.166731,54.1760099 100.481073,54.720467 100.339143,55.2501584 L99.8251674,57.1683409 C99.683237,57.6980323 99.1387799,58.0123748 98.6090885,57.8704444 C98.079397,57.728514 97.7650546,57.1840569 97.906985,56.6543654 L98.4209604,54.736183 C98.5628908,54.2064916 99.1073479,53.8921491 99.6370393,54.0340795 Z M81.3909115,122.129556 C81.920603,122.271486 82.2349454,122.815943 82.093015,123.345635 L81.5790396,125.263817 C81.4371092,125.793508 80.8926521,126.107851 80.3629607,125.96592 C79.8332692,125.82399 79.5189268,125.279533 79.6608572,124.749842 L80.1748326,122.831659 C80.316763,122.301968 80.8612201,121.987625 81.3909115,122.129556 Z M125.96592,99.6370393 C125.82399,100.166731 125.279533,100.481073 124.749842,100.339143 L122.831659,99.8251674 C122.301968,99.683237 121.987625,99.1387799 122.129556,98.6090885 C122.271486,98.079397 122.815943,97.7650546 123.345635,97.906985 L125.263817,98.4209604 C125.793508,98.5628908 126.107851,99.1073479 125.96592,99.6370393 Z M57.8704444,81.3909115 C57.728514,81.920603 57.1840569,82.2349454 56.6543654,82.093015 L54.736183,81.5790396 C54.2064916,81.4371092 53.8921491,80.8926521 54.0340795,80.3629607 C54.1760099,79.8332692 54.720467,79.5189268 55.2501584,79.6608572 L57.1683409,80.1748326 C57.6980323,80.316763 58.0123748,80.8612201 57.8704444,81.3909115 Z M108.61733,57.7538379 C109.092239,58.0280263 109.254954,58.6352893 108.980766,59.1101977 L107.987842,60.829993 C107.713653,61.3049013 107.10639,61.467617 106.631482,61.1934285 C106.156573,60.91924 105.993858,60.311977 106.268046,59.8370687 L107.260971,58.1172734 C107.535159,57.642365 108.142422,57.4796494 108.61733,57.7538379 Z M73.3685182,118.806572 C73.8434265,119.08076 74.0061422,119.688023 73.7319537,120.162931 L72.7390294,121.882727 C72.4648409,122.357635 71.857578,122.520351 71.3826696,122.246162 C70.9077612,121.971974 70.7450456,121.364711 71.0192341,120.889802 L72.0121584,119.170007 C72.2863469,118.695099 72.8936098,118.532383 73.3685182,118.806572 Z M122.246162,108.61733 C121.971974,109.092239 121.364711,109.254954 120.889802,108.980766 L119.170007,107.987842 C118.695099,107.713653 118.532383,107.10639 118.806572,106.631482 C119.08076,106.156573 119.688023,105.993858 120.162931,106.268046 L121.882727,107.260971 C122.357635,107.535159 122.520351,108.142422 122.246162,108.61733 Z M61.1934285,73.3685182 C60.91924,73.8434265 60.311977,74.0061422 59.8370687,73.7319537 L58.1172734,72.7390294 C57.642365,72.4648409 57.4796494,71.857578 57.7538379,71.3826696 C58.0280263,70.9077612 58.6352893,70.7450456 59.1101977,71.0192341 L60.829993,72.0121584 C61.3049013,72.2863469 61.467617,72.8936098 61.1934285,73.3685182 Z M116.328881,63.6711189 C116.716642,64.0588799 116.716642,64.6875648 116.328881,65.0753259 L114.924674,66.4795329 C114.536913,66.8672939 113.908228,66.8672939 113.520467,66.4795329 C113.132706,66.0917718 113.132706,65.4630869 113.520467,65.0753259 L114.924674,63.6711189 C115.312435,63.2833578 115.94112,63.2833578 116.328881,63.6711189 Z M66.4795329,113.520467 C66.8672939,113.908228 66.8672939,114.536913 66.4795329,114.924674 L65.0753259,116.328881 C64.6875648,116.716642 64.0588799,116.716642 63.6711189,116.328881 C63.2833578,115.94112 63.2833578,115.312435 63.6711189,114.924674 L65.0753259,113.520467 C65.4630869,113.132706 66.0917718,113.132706 66.4795329,113.520467 Z M116.328881,116.328881 C115.94112,116.716642 115.312435,116.716642 114.924674,116.328881 L113.520467,114.924674 C113.132706,114.536913 113.132706,113.908228 113.520467,113.520467 C113.908228,113.132706 114.536913,113.132706 114.924674,113.520467 L116.328881,114.924674 C116.716642,115.312435 116.716642,115.94112 116.328881,116.328881 Z M66.4795329,66.4795329 C66.0917718,66.8672939 65.4630869,66.8672939 65.0753259,66.4795329 L63.6711189,65.0753259 C63.2833578,64.6875648 63.2833578,64.0588799 63.6711189,63.6711189 C64.0588799,63.2833578 64.6875648,63.2833578 65.0753259,63.6711189 L66.4795329,65.0753259 C66.8672939,65.4630869 66.8672939,66.0917718 66.4795329,66.4795329 Z M122.246162,71.3826696 C122.520351,71.857578 122.357635,72.4648409 121.882727,72.7390294 L120.162931,73.7319537 C119.688023,74.0061422 119.08076,73.8434265 118.806572,73.3685182 C118.532383,72.8936098 118.695099,72.2863469 119.170007,72.0121584 L120.889802,71.0192341 C121.364711,70.7450456 121.971974,70.9077612 122.246162,71.3826696 Z M61.1934285,106.631482 C61.467617,107.10639 61.3049013,107.713653 60.829993,107.987842 L59.1101977,108.980766 C58.6352893,109.254954 58.0280263,109.092239 57.7538379,108.61733 C57.4796494,108.142422 57.642365,107.535159 58.1172734,107.260971 L59.8370687,106.268046 C60.311977,105.993858 60.91924,106.156573 61.1934285,106.631482 Z M108.61733,122.246162 C108.142422,122.520351 107.535159,122.357635 107.260971,121.882727 L106.268046,120.162931 C105.993858,119.688023 106.156573,119.08076 106.631482,118.806572 C107.10639,118.532383 107.713653,118.695099 107.987842,119.170007 L108.980766,120.889802 C109.254954,121.364711 109.092239,121.971974 108.61733,122.246162 Z M73.3685182,61.1934285 C72.8936098,61.467617 72.2863469,61.3049013 72.0121584,60.829993 L71.0192341,59.1101977 C70.7450456,58.6352893 70.9077612,58.0280263 71.3826696,57.7538379 C71.857578,57.4796494 72.4648409,57.642365 72.7390294,58.1172734 L73.7319537,59.8370687 C74.0061422,60.311977 73.8434265,60.91924 73.3685182,61.1934285 Z M125.96592,80.3629607 C126.107851,80.8926521 125.793508,81.4371092 125.263817,81.5790396 L123.345635,82.093015 C122.815943,82.2349454 122.271486,81.920603 122.129556,81.3909115 C121.987625,80.8612201 122.301968,80.316763 122.831659,80.1748326 L124.749842,79.6608572 C125.279533,79.5189268 125.82399,79.8332692 125.96592,80.3629607 Z M57.8704444,98.6090885 C58.0123748,99.1387799 57.6980323,99.683237 57.1683409,99.8251674 L55.2501584,100.339143 C54.720467,100.481073 54.1760099,100.166731 54.0340795,99.6370393 C53.8921491,99.1073479 54.2064916,98.5628908 54.736183,98.4209604 L56.6543654,97.906985 C57.1840569,97.7650546 57.728514,98.079397 57.8704444,98.6090885 Z M99.6370393,125.96592 C99.1073479,126.107851 98.5628908,125.793508 98.4209604,125.263817 L97.906985,123.345635 C97.7650546,122.815943 98.079397,122.271486 98.6090885,122.129556 C99.1387799,121.987625 99.683237,122.301968 99.8251674,122.831659 L100.339143,124.749842 C100.481073,125.279533 100.166731,125.82399 99.6370393,125.96592 Z M81.3909115,57.8704444 C80.8612201,58.0123748 80.316763,57.6980323 80.1748326,57.1683409 L79.6608572,55.2501584 C79.5189268,54.720467 79.8332692,54.1760099 80.3629607,54.0340795 C80.8926521,53.8921491 81.4371092,54.2064916 81.5790396,54.736183 L82.093015,56.6543654 C82.2349454,57.1840569 81.920603,57.728514 81.3909115,57.8704444 Z M89.9866667,52 L90.0133333,52 C90.5656181,52 91.0133333,52.4477153 91.0133333,53 L91.0133333,58.0933333 C91.0133333,58.6456181 90.5656181,59.0933333 90.0133333,59.0933333 L89.9866667,59.0933333 C89.4343819,59.0933333 88.9866667,58.6456181 88.9866667,58.0933333 L88.9866667,53 C88.9866667,52.4477153 89.4343819,52 89.9866667,52 Z M89.9866667,120.906667 L90.0133333,120.906667 C90.5656181,120.906667 91.0133333,121.354382 91.0133333,121.906667 L91.0133333,127 C91.0133333,127.552285 90.5656181,128 90.0133333,128 L89.9866667,128 C89.4343819,128 88.9866667,127.552285 88.9866667,127 L88.9866667,121.906667 C88.9866667,121.354382 89.4343819,120.906667 89.9866667,120.906667 Z M128,89.9866667 L128,90.0133333 C128,90.5656181 127.552285,91.0133333 127,91.0133333 L121.906667,91.0133333 C121.354382,91.0133333 120.906667,90.5656181 120.906667,90.0133333 L120.906667,89.9866667 C120.906667,89.4343819 121.354382,88.9866667 121.906667,88.9866667 L127,88.9866667 C127.552285,88.9866667 128,89.4343819 128,89.9866667 Z M59.0933333,89.9866667 L59.0933333,90.0133333 C59.0933333,90.5656181 58.6456181,91.0133333 58.0933333,91.0133333 L53,91.0133333 C52.4477153,91.0133333 52,90.5656181 52,90.0133333 L52,89.9866667 C52,89.4343819 52.4477153,88.9866667 53,88.9866667 L58.0933333,88.9866667 C58.6456181,88.9866667 59.0933333,89.4343819 59.0933333,89.9866667 Z" id="Combined-Shape"></path>
        </g>
    </g>
</svg>