<svg width="43" height="21" viewBox="0 0 43 21" fill="none" xmlns="http://www.w3.org/2000/svg">
<path fill-rule="evenodd" clip-rule="evenodd" d="M11.3583 0.368128C10.8697 -0.122709 10.0752 -0.122709 9.58655 0.368128L0.864232 9.13018C0.378752 9.61787 0.378752 10.4062 0.864232 10.8939L9.58655 19.656C10.0752 20.1468 10.8697 20.1468 11.3583 19.656L20.0806 10.8939C20.5661 10.4062 20.5661 9.61787 20.0806 9.13018L11.3583 0.368128ZM10.0461 6.57721L9.49296 8.23654C9.3739 8.59371 9.09363 8.87398 8.73645 8.99304L7.07712 9.54615C6.64092 9.69155 6.64092 10.3086 7.07713 10.454L8.73645 11.0071C9.09363 11.1261 9.3739 11.4064 9.49296 11.7636L10.0461 13.4229C10.1915 13.8591 10.8085 13.8591 10.9539 13.4229L11.507 11.7636C11.626 11.4064 11.9063 11.1261 12.2635 11.0071L13.9228 10.454C14.359 10.3086 14.359 9.69155 13.9228 9.54615L12.2635 8.99304C11.9063 8.87398 11.626 8.59371 11.507 8.23654L10.9539 6.57721C10.8085 6.141 10.1915 6.141 10.0461 6.57721Z" fill="black"/>
<path fill-rule="evenodd" clip-rule="evenodd" d="M33.3583 0.368128C32.8697 -0.122709 32.0752 -0.122709 31.5865 0.368128L22.8642 9.13018C22.3788 9.61787 22.3788 10.4062 22.8642 10.8939L31.5865 19.656C32.0752 20.1468 32.8697 20.1468 33.3583 19.656L42.0806 10.8939C42.5661 10.4062 42.5661 9.61787 42.0806 9.13018L33.3583 0.368128ZM33.427 14.8909L35.0905 10.2093C35.1385 10.0739 35.1385 9.92616 35.0905 9.7908L33.427 5.10917C33.204 4.48142 33.9868 3.9869 34.4579 4.45797L39.558 9.55811C39.8021 9.80219 39.8021 10.1979 39.558 10.442L34.4579 15.5421C33.9868 16.0132 33.204 15.5187 33.427 14.8909Z" fill="black"/>
</svg>
