<svg width="376" height="354" viewBox="0 0 376 354" fill="none" xmlns="http://www.w3.org/2000/svg">
<path d="M187.329 1.94256C187.408 1.71384 187.089 1.56757 186.967 1.77677L3.74669 316.995C2.97169 318.328 3.93361 320 5.47581 320H77.5L187.329 1.94256Z" fill="#F1C62D"/>
<path d="M189.729 2.97483C188.958 1.64824 187.042 1.64824 186.271 2.97483L3.74669 316.995C2.97169 318.328 3.93361 320 5.47581 320H370.524C372.066 320 373.028 318.328 372.253 316.995L189.729 2.97483Z" stroke="white" stroke-width="2"/>
<path d="M219.819 73.0003H217.747V62.6123H219.819V73.0003Z" fill="white"/>
<path d="M214.087 65.832H216.159V73H214.087V71.992H213.947C213.415 72.804 212.729 73.21 211.861 73.21C210.237 73.21 209.159 71.95 209.159 70.228V65.832H211.231V69.934C211.231 70.816 211.735 71.432 212.575 71.432C213.401 71.432 214.087 70.774 214.087 69.864V65.832Z" fill="white"/>
<path d="M206.476 73.0002H204.404V67.3442H203.396V65.8322H204.404V64.9782C204.404 63.4242 205.328 62.3882 206.7 62.3882C207.19 62.3882 207.68 62.4862 208.086 62.6122V64.2642C207.876 64.2082 207.638 64.1662 207.4 64.1662C206.84 64.1662 206.476 64.5162 206.476 65.0482V65.8322H208.086V67.3442H206.476V73.0002Z" fill="white"/>
<path d="M201.067 73.224C199.625 73.224 198.701 72.202 198.701 70.69V67.344H197.693V65.832H198.757L199.163 63.564H200.787L200.773 65.832H202.411V67.344H200.773V70.606C200.773 71.208 201.137 71.614 201.725 71.614C201.921 71.614 202.229 71.572 202.467 71.516V73C202.061 73.14 201.473 73.224 201.067 73.224Z" fill="white"/>
<path d="M191.724 73.0003H189.652V62.6123H191.724V66.7983H191.864C192.41 66.0143 193.082 65.6083 193.95 65.6083C195.574 65.6083 196.666 66.8683 196.666 68.5763V73.0003H194.594V68.8843C194.594 68.0023 194.076 67.3863 193.236 67.3863C192.41 67.3863 191.724 68.0443 191.724 68.9683V73.0003Z" fill="white"/>
<path d="M184.159 76.4441C182.073 76.4441 180.631 75.5341 180.281 73.9241L182.283 73.5321C182.549 74.3161 183.207 74.7921 184.103 74.7921C185.251 74.7921 185.993 74.0361 185.993 72.8601V72.0621H185.853C185.279 72.7201 184.551 73.0981 183.585 73.0981C181.597 73.0981 180.197 71.6281 180.197 69.4161C180.197 67.1061 181.583 65.6221 183.571 65.6221C184.607 65.6221 185.349 66.0421 185.909 66.7421H186.049V65.8321H188.065V72.9161C188.065 75.1281 186.553 76.4441 184.159 76.4441ZM184.173 71.4041C185.279 71.4041 186.063 70.5641 186.063 69.4161C186.063 68.2401 185.279 67.3861 184.173 67.3861C183.067 67.3861 182.269 68.2401 182.269 69.4161C182.269 70.5641 183.067 71.4041 184.173 71.4041Z" fill="white"/>
<path d="M177.824 64.8383C177.096 64.8383 176.578 64.3343 176.578 63.6203C176.578 62.9203 177.096 62.4023 177.824 62.4023C178.552 62.4023 179.07 62.9203 179.07 63.6203C179.07 64.3343 178.552 64.8383 177.824 64.8383ZM178.86 73.0003H176.788V65.8323H178.86V73.0003Z" fill="white"/>
<path d="M175.139 73.0003H173.067V62.6123H175.139V73.0003Z" fill="white"/>
<path d="M167.971 73.2244C165.647 73.2244 164.009 71.6704 164.009 69.3604C164.009 67.1204 165.647 65.6084 167.957 65.6084C170.239 65.6084 171.807 67.1344 171.807 69.3884C171.807 69.5704 171.807 69.8644 171.779 70.0184H166.151C166.319 71.0264 167.033 71.6844 168.055 71.6844C168.853 71.6844 169.469 71.2924 169.777 70.7044L171.541 71.1524C171.093 72.4404 169.707 73.2244 167.971 73.2244ZM166.137 68.7304H169.693C169.567 67.8204 168.867 67.1484 167.901 67.1484C166.963 67.1484 166.305 67.7784 166.137 68.7304Z" fill="white"/>
<path d="M158.264 73.2243C156.29 73.2243 154.876 71.6983 154.876 69.4163C154.876 67.1483 156.304 65.6083 158.25 65.6083C159.244 65.6083 160.028 66.0143 160.532 66.7283H160.672V62.6123H162.744V73.0003H160.672V72.0903H160.532C160.028 72.8183 159.272 73.2243 158.264 73.2243ZM158.852 71.4603C159.958 71.4603 160.742 70.5643 160.742 69.4163C160.742 68.2683 159.958 67.3863 158.852 67.3863C157.746 67.3863 156.948 68.2683 156.948 69.4163C156.948 70.5783 157.76 71.4603 158.852 71.4603Z" fill="white"/>
<path d="M205.609 150.224C203.285 150.224 201.647 148.67 201.647 146.36C201.647 144.12 203.285 142.608 205.595 142.608C207.877 142.608 209.445 144.134 209.445 146.388C209.445 146.57 209.445 146.864 209.417 147.018H203.789C203.957 148.026 204.671 148.684 205.693 148.684C206.491 148.684 207.107 148.292 207.415 147.704L209.179 148.152C208.731 149.44 207.345 150.224 205.609 150.224ZM203.775 145.73H207.331C207.205 144.82 206.505 144.148 205.539 144.148C204.601 144.148 203.943 144.778 203.775 145.73Z" fill="white"/>
<path d="M200.39 150H198.318V139.612H200.39V150Z" fill="white"/>
<path d="M193.665 150.224C192.643 150.224 191.901 149.818 191.397 149.09H191.257V150H189.185V139.612H191.257V143.728H191.397C191.901 143.014 192.685 142.608 193.665 142.608C195.625 142.608 197.053 144.148 197.053 146.416C197.053 148.698 195.639 150.224 193.665 150.224ZM193.077 148.46C194.169 148.46 194.967 147.578 194.967 146.416C194.967 145.268 194.183 144.386 193.077 144.386C191.971 144.386 191.173 145.268 191.173 146.416C191.173 147.564 191.971 148.46 193.077 148.46Z" fill="white"/>
<path d="M183.204 150.182C181.734 150.182 180.726 149.412 180.726 148.124C180.726 146.78 181.86 145.954 184.114 145.674L185.64 145.492V145.198C185.64 144.512 185.164 144.05 184.338 144.05C183.582 144.05 183.064 144.47 183.078 145.184H181.048C181.048 143.616 182.35 142.608 184.366 142.608C186.41 142.608 187.712 143.644 187.712 145.268V150H185.64V149.09H185.5C185.052 149.804 184.226 150.182 183.204 150.182ZM183.89 148.824C184.926 148.824 185.64 148.152 185.64 147.256V146.752L184.17 146.934C183.148 147.06 182.756 147.466 182.756 147.956C182.756 148.488 183.176 148.824 183.89 148.824Z" fill="white"/>
<path d="M176.489 150.252C174.361 150.252 173.073 149.258 173.073 147.606H174.907C174.907 148.362 175.523 148.88 176.545 148.88C177.329 148.88 177.847 148.544 177.847 147.998C177.847 147.34 177.105 147.256 176.237 147.172C174.921 147.032 173.157 146.822 173.157 144.974C173.157 143.504 174.431 142.58 176.349 142.58C178.267 142.58 179.653 143.518 179.653 145.002H177.763C177.749 144.358 177.175 143.952 176.349 143.952C175.593 143.952 175.075 144.288 175.075 144.806C175.075 145.478 175.957 145.52 176.951 145.632C178.267 145.786 179.877 146.108 179.877 147.816C179.877 149.342 178.603 150.252 176.489 150.252Z" fill="white"/>
<path d="M169.693 142.832H171.765V150H169.693V148.992H169.553C169.021 149.804 168.335 150.21 167.467 150.21C165.843 150.21 164.765 148.95 164.765 147.228V142.832H166.837V146.934C166.837 147.816 167.341 148.432 168.181 148.432C169.007 148.432 169.693 147.774 169.693 146.864V142.832Z" fill="white"/>
<path d="M208.405 230.224C206.081 230.224 204.443 228.67 204.443 226.36C204.443 224.12 206.081 222.608 208.391 222.608C210.673 222.608 212.241 224.134 212.241 226.388C212.241 226.57 212.241 226.864 212.213 227.018H206.585C206.753 228.026 207.467 228.684 208.489 228.684C209.287 228.684 209.903 228.292 210.211 227.704L211.975 228.152C211.527 229.44 210.141 230.224 208.405 230.224ZM206.571 225.73H210.127C210.001 224.82 209.301 224.148 208.335 224.148C207.397 224.148 206.739 224.778 206.571 225.73Z" fill="white"/>
<path d="M203.186 230H201.114V219.612H203.186V230Z" fill="white"/>
<path d="M196.461 230.224C195.439 230.224 194.697 229.818 194.193 229.09H194.053V230H191.981V219.612H194.053V223.728H194.193C194.697 223.014 195.481 222.608 196.461 222.608C198.421 222.608 199.849 224.148 199.849 226.416C199.849 228.698 198.435 230.224 196.461 230.224ZM195.873 228.46C196.965 228.46 197.763 227.578 197.763 226.416C197.763 225.268 196.979 224.386 195.873 224.386C194.767 224.386 193.969 225.268 193.969 226.416C193.969 227.564 194.767 228.46 195.873 228.46Z" fill="white"/>
<path d="M185.999 230.182C184.529 230.182 183.521 229.412 183.521 228.124C183.521 226.78 184.655 225.954 186.909 225.674L188.435 225.492V225.198C188.435 224.512 187.959 224.05 187.133 224.05C186.377 224.05 185.859 224.47 185.873 225.184H183.843C183.843 223.616 185.145 222.608 187.161 222.608C189.205 222.608 190.507 223.644 190.507 225.268V230H188.435V229.09H188.295C187.847 229.804 187.021 230.182 185.999 230.182ZM186.685 228.824C187.721 228.824 188.435 228.152 188.435 227.256V226.752L186.965 226.934C185.943 227.06 185.551 227.466 185.551 227.956C185.551 228.488 185.971 228.824 186.685 228.824Z" fill="white"/>
<path d="M181.289 221.838C180.561 221.838 180.043 221.334 180.043 220.62C180.043 219.92 180.561 219.402 181.289 219.402C182.017 219.402 182.535 219.92 182.535 220.62C182.535 221.334 182.017 221.838 181.289 221.838ZM182.325 230H180.253V222.832H182.325V230Z" fill="white"/>
<path d="M178.604 230H176.532V219.612H178.604V230Z" fill="white"/>
<path d="M171.436 230.224C169.112 230.224 167.474 228.67 167.474 226.36C167.474 224.12 169.112 222.608 171.422 222.608C173.704 222.608 175.272 224.134 175.272 226.388C175.272 226.57 175.272 226.864 175.244 227.018H169.616C169.784 228.026 170.498 228.684 171.52 228.684C172.318 228.684 172.934 228.292 173.242 227.704L175.006 228.152C174.558 229.44 173.172 230.224 171.436 230.224ZM169.602 225.73H173.158C173.032 224.82 172.332 224.148 171.366 224.148C170.428 224.148 169.77 224.778 169.602 225.73Z" fill="white"/>
<path d="M164.153 230H162.081V222.832H164.125V223.812H164.279C164.587 223.14 165.287 222.692 166.043 222.692C166.337 222.692 166.631 222.762 166.855 222.874V224.736C166.449 224.554 165.973 224.47 165.679 224.47C164.769 224.47 164.153 225.226 164.153 226.332V230Z" fill="white"/>
<path d="M220.83 310H218.758V299.612H220.83V310Z" fill="white"/>
<path d="M212.776 310.182C211.306 310.182 210.298 309.412 210.298 308.124C210.298 306.78 211.432 305.954 213.686 305.674L215.212 305.492V305.198C215.212 304.512 214.736 304.05 213.91 304.05C213.154 304.05 212.636 304.47 212.65 305.184H210.62C210.62 303.616 211.922 302.608 213.938 302.608C215.982 302.608 217.284 303.644 217.284 305.268V310H215.212V309.09H215.072C214.624 309.804 213.798 310.182 212.776 310.182ZM213.462 308.824C214.498 308.824 215.212 308.152 215.212 307.256V306.752L213.742 306.934C212.72 307.06 212.328 307.466 212.328 307.956C212.328 308.488 212.748 308.824 213.462 308.824Z" fill="white"/>
<path d="M204.342 310H202.27V302.832H204.342V303.84H204.482C205.014 303.028 205.7 302.622 206.568 302.622C208.192 302.622 209.27 303.882 209.27 305.604V310H207.198V305.898C207.198 305.016 206.694 304.4 205.854 304.4C205.028 304.4 204.342 305.058 204.342 305.968V310Z" fill="white"/>
<path d="M197.037 310.224C194.643 310.224 193.061 308.726 193.061 306.416C193.061 304.106 194.643 302.608 197.037 302.608C199.417 302.608 201.013 304.106 201.013 306.416C201.013 308.74 199.417 310.224 197.037 310.224ZM197.037 308.46C198.143 308.46 198.927 307.606 198.927 306.416C198.927 305.226 198.143 304.386 197.037 304.386C195.917 304.386 195.133 305.226 195.133 306.416C195.133 307.606 195.917 308.46 197.037 308.46Z" fill="white"/>
<path d="M190.702 301.838C189.974 301.838 189.456 301.334 189.456 300.62C189.456 299.92 189.974 299.402 190.702 299.402C191.43 299.402 191.948 299.92 191.948 300.62C191.948 301.334 191.43 301.838 190.702 301.838ZM191.738 310H189.666V302.832H191.738V310Z" fill="white"/>
<path d="M186.916 310.224C185.474 310.224 184.55 309.202 184.55 307.69V304.344H183.542V302.832H184.606L185.012 300.564H186.636L186.622 302.832H188.26V304.344H186.622V307.606C186.622 308.208 186.986 308.614 187.574 308.614C187.77 308.614 188.078 308.572 188.316 308.516V310C187.91 310.14 187.322 310.224 186.916 310.224Z" fill="white"/>
<path d="M179.207 310.224C176.925 310.224 175.315 308.684 175.315 306.416C175.315 304.134 176.897 302.608 179.207 302.608C181.153 302.608 182.637 303.7 182.875 305.394L180.943 305.646C180.761 304.862 180.033 304.316 179.235 304.316C178.185 304.316 177.387 305.184 177.387 306.416C177.387 307.648 178.171 308.516 179.221 308.516C180.047 308.516 180.747 307.97 180.943 307.2L182.889 307.438C182.623 309.132 181.125 310.224 179.207 310.224Z" fill="white"/>
<path d="M169.219 310H167.147V302.832H169.219V303.84H169.359C169.891 303.028 170.577 302.622 171.445 302.622C173.069 302.622 174.147 303.882 174.147 305.604V310H172.075V305.898C172.075 305.016 171.571 304.4 170.731 304.4C169.905 304.4 169.219 305.058 169.219 305.968V310Z" fill="white"/>
<path d="M163.472 302.832H165.544V310H163.472V308.992H163.332C162.8 309.804 162.114 310.21 161.246 310.21C159.622 310.21 158.544 308.95 158.544 307.228V302.832H160.616V306.934C160.616 307.816 161.12 308.432 161.96 308.432C162.786 308.432 163.472 307.774 163.472 306.864V302.832Z" fill="white"/>
<path d="M155.862 310H153.79V304.344H152.782V302.832H153.79V301.978C153.79 300.424 154.714 299.388 156.086 299.388C156.576 299.388 157.066 299.486 157.472 299.612V301.264C157.262 301.208 157.024 301.166 156.786 301.166C156.226 301.166 155.862 301.516 155.862 302.048V302.832H157.472V304.344H155.862V310Z" fill="white"/>
<path d="M48 240L327 240" stroke="white" stroke-width="2"/>
<path d="M95 160L281 160" stroke="white" stroke-width="2"/>
<path d="M141 80L234 80" stroke="white" stroke-width="2"/>
<rect opacity="0.2" x="2" y="323" width="76" height="31" rx="3" fill="#F0C52D"/>
<rect opacity="0.1" x="80" y="323" width="294" height="31" rx="3" fill="#D9D9D9"/>
<path d="M13.3358 343H8.35175V333.032H13.1678C15.3238 333.032 16.6958 334.138 16.6958 335.762C16.6958 336.756 16.0658 337.554 15.2537 337.82V337.96C16.2478 338.24 16.9758 339.136 16.9758 340.27C16.9758 341.936 15.5338 343 13.3358 343ZM10.6758 334.796V337.12H12.7618C13.6718 337.12 14.3158 336.644 14.3158 335.958C14.3158 335.272 13.6718 334.796 12.7618 334.796H10.6758ZM10.6758 338.702V341.236H12.8598C13.8678 341.236 14.5958 340.704 14.5958 339.962C14.5958 339.234 13.8678 338.702 12.8598 338.702H10.6758ZM23.0476 335.832H25.1196V343H23.0476V341.992H22.9076C22.3756 342.804 21.6896 343.21 20.8216 343.21C19.1976 343.21 18.1196 341.95 18.1196 340.228V335.832H20.1916V339.934C20.1916 340.816 20.6956 341.432 21.5356 341.432C22.3616 341.432 23.0476 340.774 23.0476 339.864V335.832ZM27.8278 334.838C27.0998 334.838 26.5818 334.334 26.5818 333.62C26.5818 332.92 27.0998 332.402 27.8278 332.402C28.5558 332.402 29.0738 332.92 29.0738 333.62C29.0738 334.334 28.5558 334.838 27.8278 334.838ZM28.8638 343H26.7918V335.832H28.8638V343ZM32.5806 343H30.5086V332.612H32.5806V343ZM37.2253 343.224C35.2513 343.224 33.8373 341.698 33.8373 339.416C33.8373 337.148 35.2653 335.608 37.2113 335.608C38.2053 335.608 38.9893 336.014 39.4933 336.728H39.6333V332.612H41.7053V343H39.6333V342.09H39.4933C38.9893 342.818 38.2333 343.224 37.2253 343.224ZM37.8133 341.46C38.9193 341.46 39.7033 340.564 39.7033 339.416C39.7033 338.268 38.9193 337.386 37.8133 337.386C36.7073 337.386 35.9093 338.268 35.9093 339.416C35.9093 340.578 36.7213 341.46 37.8133 341.46ZM49.6495 343.224C48.2075 343.224 47.2835 342.202 47.2835 340.69V337.344H46.2755V335.832H47.3395L47.7455 333.564H49.3695L49.3555 335.832H50.9935V337.344H49.3555V340.606C49.3555 341.208 49.7195 341.614 50.3075 341.614C50.5035 341.614 50.8115 341.572 51.0495 341.516V343C50.6435 343.14 50.0555 343.224 49.6495 343.224ZM54.4013 343H52.3293V332.612H54.4013V336.798H54.5413C55.0873 336.014 55.7593 335.608 56.6273 335.608C58.2513 335.608 59.3433 336.868 59.3433 338.576V343H57.2713V338.884C57.2713 338.002 56.7533 337.386 55.9133 337.386C55.0873 337.386 54.4013 338.044 54.4013 338.968V343ZM61.9392 334.838C61.2112 334.838 60.6932 334.334 60.6932 333.62C60.6932 332.92 61.2112 332.402 61.9392 332.402C62.6672 332.402 63.1852 332.92 63.1852 333.62C63.1852 334.334 62.6672 334.838 61.9392 334.838ZM62.9752 343H60.9032V335.832H62.9752V343ZM67.7559 343.252C65.6279 343.252 64.3399 342.258 64.3399 340.606H66.1739C66.1739 341.362 66.7899 341.88 67.8119 341.88C68.5959 341.88 69.1139 341.544 69.1139 340.998C69.1139 340.34 68.3719 340.256 67.5039 340.172C66.1879 340.032 64.4239 339.822 64.4239 337.974C64.4239 336.504 65.6979 335.58 67.6159 335.58C69.5339 335.58 70.9199 336.518 70.9199 338.002H69.0299C69.0159 337.358 68.4419 336.952 67.6159 336.952C66.8599 336.952 66.3419 337.288 66.3419 337.806C66.3419 338.478 67.2239 338.52 68.2179 338.632C69.5339 338.786 71.1439 339.108 71.1439 340.816C71.1439 342.342 69.8699 343.252 67.7559 343.252Z" fill="#F0C52D"/>
<path d="M132.165 343.35C129.071 343.35 126.845 341.124 126.845 338.058C126.845 334.992 129.071 332.78 132.165 332.78C134.237 332.78 136.113 333.984 136.659 335.636L135.497 336.028C135.077 334.796 133.691 333.9 132.165 333.9C129.799 333.9 128.119 335.622 128.119 338.058C128.119 340.466 129.813 342.23 132.165 342.23C134.293 342.23 135.973 340.704 136.029 338.716L131.129 338.702V337.568H137.317C137.527 340.928 135.371 343.35 132.165 343.35ZM142.561 343.28C140.349 343.28 138.753 341.642 138.753 339.374C138.753 337.218 140.321 335.65 142.505 335.65C144.661 335.65 146.215 337.218 146.215 339.388C146.215 339.528 146.215 339.696 146.201 339.85H139.943C140.111 341.278 141.147 342.23 142.589 342.23C143.639 342.23 144.563 341.698 145.011 340.858L145.977 341.348C145.403 342.552 144.129 343.28 142.561 343.28ZM139.957 338.828H144.997C144.787 337.554 143.793 336.7 142.449 336.7C141.147 336.7 140.153 337.554 139.957 338.828ZM150.292 343.266C149.102 343.266 148.346 342.426 148.346 341.18V336.854H147.198V335.93H148.346L148.612 333.648H149.522L149.508 335.93H151.328V336.854H149.508V341.138C149.508 341.81 149.928 342.286 150.6 342.286C150.81 342.286 151.174 342.23 151.44 342.146V343.084C151.104 343.196 150.642 343.266 150.292 343.266ZM157.399 334.586C156.909 334.586 156.559 334.236 156.559 333.746C156.559 333.27 156.909 332.934 157.399 332.934C157.889 332.934 158.225 333.27 158.225 333.746C158.225 334.236 157.889 334.586 157.399 334.586ZM157.973 343H156.811V335.93H157.973V343ZM161.402 343H160.24V335.93H161.402V336.896H161.542C162.046 336.112 162.83 335.664 163.768 335.664C165.56 335.664 166.708 336.98 166.708 338.772V343H165.546V338.772C165.546 337.582 164.832 336.714 163.614 336.714C162.424 336.714 161.402 337.638 161.402 338.87V343ZM171.615 343.28C169.585 343.28 168.409 342.286 168.409 340.606H169.529C169.543 341.614 170.327 342.3 171.657 342.3C172.721 342.3 173.407 341.852 173.407 341.11C173.407 340.186 172.441 340.116 171.377 339.976C170.061 339.822 168.535 339.472 168.535 337.862C168.535 336.49 169.683 335.65 171.377 335.65C173.141 335.65 174.345 336.588 174.345 338.044H173.211C173.197 337.176 172.455 336.63 171.363 336.63C170.341 336.63 169.641 337.092 169.641 337.82C169.641 338.702 170.593 338.772 171.643 338.898C172.973 339.066 174.499 339.402 174.499 341.096C174.499 342.482 173.421 343.28 171.615 343.28ZM177.046 334.586C176.556 334.586 176.206 334.236 176.206 333.746C176.206 333.27 176.556 332.934 177.046 332.934C177.536 332.934 177.872 333.27 177.872 333.746C177.872 334.236 177.536 334.586 177.046 334.586ZM177.62 343H176.458V335.93H177.62V343ZM183.303 346.5C181.483 346.5 180.139 345.618 179.663 344.148L180.825 343.714C181.203 344.806 182.099 345.45 183.359 345.45C184.899 345.45 185.907 344.456 185.907 342.874V341.922H185.767C185.151 342.706 184.297 343.182 183.191 343.182C181.063 343.182 179.523 341.628 179.523 339.458C179.523 337.274 181.063 335.664 183.191 335.664C184.325 335.664 185.179 336.154 185.781 336.938H185.921V335.93H187.069V342.874C187.069 345.086 185.585 346.5 183.303 346.5ZM183.317 342.16C184.843 342.16 185.949 341.012 185.949 339.458C185.949 337.862 184.829 336.7 183.317 336.7C181.791 336.7 180.685 337.862 180.685 339.458C180.685 341.012 181.791 342.16 183.317 342.16ZM190.373 343H189.211V332.71H190.373V336.826H190.513C191.017 336.084 191.801 335.65 192.739 335.65C194.531 335.65 195.679 336.952 195.679 338.758V343H194.517V338.758C194.517 337.554 193.803 336.7 192.585 336.7C191.395 336.7 190.373 337.61 190.373 338.87V343ZM200.263 343.266C199.073 343.266 198.317 342.426 198.317 341.18V336.854H197.169V335.93H198.317L198.583 333.648H199.493L199.479 335.93H201.299V336.854H199.479V341.138C199.479 341.81 199.899 342.286 200.571 342.286C200.781 342.286 201.145 342.23 201.411 342.146V343.084C201.075 343.196 200.613 343.266 200.263 343.266ZM206.068 343.28C204.038 343.28 202.862 342.286 202.862 340.606H203.982C203.996 341.614 204.78 342.3 206.11 342.3C207.174 342.3 207.86 341.852 207.86 341.11C207.86 340.186 206.894 340.116 205.83 339.976C204.514 339.822 202.988 339.472 202.988 337.862C202.988 336.49 204.136 335.65 205.83 335.65C207.594 335.65 208.798 336.588 208.798 338.044H207.664C207.65 337.176 206.908 336.63 205.816 336.63C204.794 336.63 204.094 337.092 204.094 337.82C204.094 338.702 205.046 338.772 206.096 338.898C207.426 339.066 208.952 339.402 208.952 341.096C208.952 342.482 207.874 343.28 206.068 343.28ZM218.177 343.28C217.015 343.28 216.105 342.776 215.587 341.908H215.461V343H214.299V332.71H215.461V336.98H215.587C216.105 336.126 217.057 335.65 218.191 335.65C220.249 335.65 221.831 337.246 221.831 339.458C221.831 341.67 220.235 343.28 218.177 343.28ZM218.051 342.23C219.563 342.23 220.669 341.04 220.669 339.458C220.669 337.904 219.563 336.7 218.051 336.7C216.525 336.7 215.419 337.904 215.419 339.458C215.419 341.012 216.525 342.23 218.051 342.23ZM227.067 343.28C224.855 343.28 223.259 341.642 223.259 339.374C223.259 337.218 224.827 335.65 227.011 335.65C229.167 335.65 230.721 337.218 230.721 339.388C230.721 339.528 230.721 339.696 230.707 339.85H224.449C224.617 341.278 225.653 342.23 227.095 342.23C228.145 342.23 229.069 341.698 229.517 340.858L230.483 341.348C229.909 342.552 228.635 343.28 227.067 343.28ZM224.463 338.828H229.503C229.293 337.554 228.299 336.7 226.955 336.7C225.653 336.7 224.659 337.554 224.463 338.828ZM234.028 343H232.866V336.854H231.732V335.93H232.866V334.502C232.866 333.242 233.636 332.43 234.756 332.43C235.162 332.43 235.512 332.5 235.834 332.598V333.606C235.596 333.536 235.344 333.48 235.064 333.48C234.448 333.48 234.028 333.928 234.028 334.614V335.93H235.82V336.854H234.028V343ZM240.451 343.28C238.225 343.28 236.657 341.698 236.657 339.458C236.657 337.232 238.225 335.65 240.451 335.65C242.663 335.65 244.245 337.232 244.245 339.458C244.245 341.698 242.663 343.28 240.451 343.28ZM240.451 342.23C241.977 342.23 243.083 341.068 243.083 339.458C243.083 337.862 241.977 336.7 240.451 336.7C238.911 336.7 237.819 337.862 237.819 339.458C237.819 341.068 238.911 342.23 240.451 342.23ZM247.179 343H246.017V335.93H247.151V336.882H247.277C247.599 336.238 248.383 335.79 249.167 335.79C249.489 335.79 249.825 335.86 250.035 335.972V337.05C249.671 336.896 249.251 336.84 248.985 336.84C247.921 336.84 247.179 337.792 247.179 339.192V343ZM254.698 343.28C252.486 343.28 250.89 341.642 250.89 339.374C250.89 337.218 252.458 335.65 254.642 335.65C256.798 335.65 258.352 337.218 258.352 339.388C258.352 339.528 258.352 339.696 258.338 339.85H252.08C252.248 341.278 253.284 342.23 254.726 342.23C255.776 342.23 256.7 341.698 257.148 340.858L258.114 341.348C257.54 342.552 256.266 343.28 254.698 343.28ZM252.094 338.828H257.134C256.924 337.554 255.93 336.7 254.586 336.7C253.284 336.7 252.29 337.554 252.094 338.828ZM267.519 343.28C266.357 343.28 265.447 342.776 264.929 341.908H264.803V343H263.641V332.71H264.803V336.98H264.929C265.447 336.126 266.399 335.65 267.533 335.65C269.591 335.65 271.173 337.246 271.173 339.458C271.173 341.67 269.577 343.28 267.519 343.28ZM267.393 342.23C268.905 342.23 270.011 341.04 270.011 339.458C270.011 337.904 268.905 336.7 267.393 336.7C265.867 336.7 264.761 337.904 264.761 339.458C264.761 341.012 265.867 342.23 267.393 342.23ZM278.117 335.93H279.279V343H278.117V342.034H277.977C277.487 342.804 276.689 343.252 275.765 343.252C273.959 343.252 272.825 341.95 272.825 340.144V335.93H273.987V340.144C273.987 341.348 274.687 342.202 275.905 342.202C277.095 342.202 278.117 341.292 278.117 340.046V335.93ZM282.141 334.586C281.651 334.586 281.301 334.236 281.301 333.746C281.301 333.27 281.651 332.934 282.141 332.934C282.631 332.934 282.967 333.27 282.967 333.746C282.967 334.236 282.631 334.586 282.141 334.586ZM282.715 343H281.553V335.93H282.715V343ZM286.144 343H284.982V332.71H286.144V343ZM291.595 343.28C289.523 343.28 287.927 341.67 287.927 339.458C287.927 337.246 289.509 335.65 291.581 335.65C292.715 335.65 293.653 336.126 294.171 336.98H294.311V332.71H295.473V343H294.311V341.908H294.171C293.653 342.776 292.743 343.28 291.595 343.28ZM291.721 342.23C293.233 342.23 294.339 341.012 294.339 339.458C294.339 337.904 293.233 336.7 291.721 336.7C290.195 336.7 289.089 337.904 289.089 339.458C289.089 341.04 290.209 342.23 291.721 342.23ZM302.277 343H301.115V335.93H302.277V336.896H302.417C302.921 336.112 303.705 335.664 304.643 335.664C306.435 335.664 307.583 336.98 307.583 338.772V343H306.421V338.772C306.421 337.582 305.707 336.714 304.489 336.714C303.299 336.714 302.277 337.638 302.277 338.87V343ZM313.036 343.28C310.824 343.28 309.228 341.642 309.228 339.374C309.228 337.218 310.796 335.65 312.98 335.65C315.136 335.65 316.69 337.218 316.69 339.388C316.69 339.528 316.69 339.696 316.676 339.85H310.418C310.586 341.278 311.622 342.23 313.064 342.23C314.114 342.23 315.038 341.698 315.486 340.858L316.452 341.348C315.878 342.552 314.604 343.28 313.036 343.28ZM310.432 338.828H315.472C315.262 337.554 314.268 336.7 312.924 336.7C311.622 336.7 310.628 337.554 310.432 338.828ZM318.734 343H317.446L320.106 339.318L317.586 335.93H318.832L320.764 338.562H320.904L322.836 335.93H324.082L321.562 339.318L324.222 343H322.934L320.904 340.116H320.764L318.734 343ZM328.054 343.266C326.864 343.266 326.108 342.426 326.108 341.18V336.854H324.96V335.93H326.108L326.374 333.648H327.284L327.27 335.93H329.09V336.854H327.27V341.138C327.27 341.81 327.69 342.286 328.362 342.286C328.572 342.286 328.936 342.23 329.202 342.146V343.084C328.866 343.196 328.404 343.266 328.054 343.266Z" fill="#C2C2C2"/>
</svg>
