<?xml version="1.0" encoding="UTF-8"?>
<svg width="74px" height="9px" viewBox="0 0 74 9" version="1.1" xmlns="http://www.w3.org/2000/svg" xmlns:xlink="http://www.w3.org/1999/xlink">
    <!-- Generator: Sketch 54.1 (76490) - https://sketchapp.com -->
    <title>Combined Shape</title>
    <desc>Created with Sketch.</desc>
    <g id="Symbols" stroke="none" stroke-width="1" fill="none" fill-rule="evenodd">
        <g id="2323" transform="translate(-53.000000, -94.000000)" fill="#C4C4C4">
            <path d="M54,96 C54.5522847,96 55,96.4477153 55,97 L55,102 C55,102.552285 54.5522847,103 54,103 C53.4477153,103 53,102.552285 53,102 L53,97 C53,96.4477153 53.4477153,96 54,96 Z M62,99 C62.5522847,99 63,99.4477153 63,100 L63,102 C63,102.552285 62.5522847,103 62,103 C61.4477153,103 61,102.552285 61,102 L61,100 C61,99.4477153 61.4477153,99 62,99 Z M70,94 C70.5522847,94 71,94.4477153 71,95 L71,102 C71,102.552285 70.5522847,103 70,103 C69.4477153,103 69,102.552285 69,102 L69,95 C69,94.4477153 69.4477153,94 70,94 Z M78,101 C78.5522847,101 79,101.447715 79,102 C79,102.552285 78.5522847,103 78,103 C77.4477153,103 77,102.552285 77,102 C77,101.447715 77.4477153,101 78,101 Z M86,97 C86.5522847,97 87,97.4477153 87,98 L87,102 C87,102.552285 86.5522847,103 86,103 C85.4477153,103 85,102.552285 85,102 L85,98 C85,97.4477153 85.4477153,97 86,97 Z M94,99 C94.5522847,99 95,99.4477153 95,100 L95,102 C95,102.552285 94.5522847,103 94,103 C93.4477153,103 93,102.552285 93,102 L93,100 C93,99.4477153 93.4477153,99 94,99 Z M102,94 C102.552285,94 103,94.4477153 103,95 L103,102 C103,102.552285 102.552285,103 102,103 C101.447715,103 101,102.552285 101,102 L101,95 C101,94.4477153 101.447715,94 102,94 Z M110,95 C110.552285,95 111,95.4477153 111,96 L111,102 C111,102.552285 110.552285,103 110,103 C109.447715,103 109,102.552285 109,102 L109,96 C109,95.4477153 109.447715,95 110,95 Z M118,100 C118.552285,100 119,100.447715 119,101 L119,102 C119,102.552285 118.552285,103 118,103 C117.447715,103 117,102.552285 117,102 L117,101 C117,100.447715 117.447715,100 118,100 Z M126,95 C126.552285,95 127,95.4477153 127,96 L127,102 C127,102.552285 126.552285,103 126,103 C125.447715,103 125,102.552285 125,102 L125,96 C125,95.4477153 125.447715,95 126,95 Z M58,98 C58.5522847,98 59,98.4477153 59,99 L59,102 C59,102.552285 58.5522847,103 58,103 C57.4477153,103 57,102.552285 57,102 L57,99 C57,98.4477153 57.4477153,98 58,98 Z M66,100 C66.5522847,100 67,100.447715 67,101 L67,102 C67,102.552285 66.5522847,103 66,103 C65.4477153,103 65,102.552285 65,102 L65,101 C65,100.447715 65.4477153,100 66,100 Z M74,97 C74.5522847,97 75,97.4477153 75,98 L75,102 C75,102.552285 74.5522847,103 74,103 C73.4477153,103 73,102.552285 73,102 L73,98 C73,97.4477153 73.4477153,97 74,97 Z M81.5,102 L82.5,102 C82.7761424,102 83,102.223858 83,102.5 C83,102.776142 82.7761424,103 82.5,103 L81.5,103 C81.2238576,103 81,102.776142 81,102.5 C81,102.223858 81.2238576,102 81.5,102 Z M90,99 C90.5522847,99 91,99.4477153 91,100 L91,102 C91,102.552285 90.5522847,103 90,103 C89.4477153,103 89,102.552285 89,102 L89,100 C89,99.4477153 89.4477153,99 90,99 Z M98,100 C98.5522847,100 99,100.447715 99,101 L99,102 C99,102.552285 98.5522847,103 98,103 C97.4477153,103 97,102.552285 97,102 L97,101 C97,100.447715 97.4477153,100 98,100 Z M106,97 C106.552285,97 107,97.4477153 107,98 L107,102 C107,102.552285 106.552285,103 106,103 C105.447715,103 105,102.552285 105,102 L105,98 C105,97.4477153 105.447715,97 106,97 Z M114,98 C114.552285,98 115,98.4477153 115,99 L115,102 C115,102.552285 114.552285,103 114,103 C113.447715,103 113,102.552285 113,102 L113,99 C113,98.4477153 113.447715,98 114,98 Z M122,101 C122.552285,101 123,101.447715 123,102 C123,102.552285 122.552285,103 122,103 C121.447715,103 121,102.552285 121,102 C121,101.447715 121.447715,101 122,101 Z" id="Combined-Shape"></path>
        </g>
    </g>
</svg>