<svg width="288" height="102" viewBox="0 0 288 102" fill="none" xmlns="http://www.w3.org/2000/svg">
<path d="M26.0801 0.5H261.92C266.636 0.5 270.141 0.500663 272.913 0.738281C275.678 0.97537 277.667 1.44593 279.36 2.35938C282.022 3.79538 284.205 5.97837 285.641 8.63965C286.554 10.3326 287.025 12.3216 287.262 15.0869C287.499 17.8587 287.5 21.3643 287.5 26.0801V75.9199C287.5 80.6357 287.499 84.1413 287.262 86.9131C287.025 89.6784 286.554 91.6674 285.641 93.3604C284.205 96.0216 282.022 98.2046 279.36 99.6406C277.667 100.554 275.678 101.025 272.913 101.262C270.141 101.499 266.636 101.5 261.92 101.5H26.0801C21.3643 101.5 17.8587 101.499 15.0869 101.262C12.3216 101.025 10.3326 100.554 8.63965 99.6406C5.97837 98.2046 3.79538 96.0216 2.35938 93.3604C1.44593 91.6674 0.97537 89.6784 0.738281 86.9131C0.500663 84.1413 0.5 80.6357 0.5 75.9199V26.0801C0.5 21.3643 0.500663 17.8587 0.738281 15.0869C0.97537 12.3216 1.44593 10.3326 2.35938 8.63965C3.79538 5.97837 5.97837 3.79538 8.63965 2.35938C10.3326 1.44593 12.3216 0.97537 15.0869 0.738281C17.8587 0.500663 21.3643 0.5 26.0801 0.5Z" fill="black"/>
<path d="M26.0801 0.5H261.92C266.636 0.5 270.141 0.500663 272.913 0.738281C275.678 0.97537 277.667 1.44593 279.36 2.35938C282.022 3.79538 284.205 5.97837 285.641 8.63965C286.554 10.3326 287.025 12.3216 287.262 15.0869C287.499 17.8587 287.5 21.3643 287.5 26.0801V75.9199C287.5 80.6357 287.499 84.1413 287.262 86.9131C287.025 89.6784 286.554 91.6674 285.641 93.3604C284.205 96.0216 282.022 98.2046 279.36 99.6406C277.667 100.554 275.678 101.025 272.913 101.262C270.141 101.499 266.636 101.5 261.92 101.5H26.0801C21.3643 101.5 17.8587 101.499 15.0869 101.262C12.3216 101.025 10.3326 100.554 8.63965 99.6406C5.97837 98.2046 3.79538 96.0216 2.35938 93.3604C1.44593 91.6674 0.97537 89.6784 0.738281 86.9131C0.500663 84.1413 0.5 80.6357 0.5 75.9199V26.0801C0.5 21.3643 0.500663 17.8587 0.738281 15.0869C0.97537 12.3216 1.44593 10.3326 2.35938 8.63965C3.79538 5.97837 5.97837 3.79538 8.63965 2.35938C10.3326 1.44593 12.3216 0.97537 15.0869 0.738281C17.8587 0.500663 21.3643 0.5 26.0801 0.5Z" stroke="#373737"/>
<path fill-rule="evenodd" clip-rule="evenodd" d="M53 24C67.9434 24 80 36.1005 80 50.9717C80 65.8429 67.9434 78 53 78C38.0566 78 26 65.8995 26 50.9717C26 36.044 38.1132 24 53 24ZM53 29.1455C65.1132 29.1455 74.9057 38.9277 74.9057 51.0283C74.9057 59.0576 70.5472 66.1257 64.0377 69.9141C65.3962 65.1644 65.9623 60.3016 65.7358 54.7037C67.1509 55.0995 67.9434 55.3257 69.3585 55.778C67.717 51.6503 65.9623 47.9183 63.6415 44.1298C61.6038 48.0314 58.8302 51.7068 56.0566 54.5906L60.5849 54.3079C56.6792 61.2628 51.1887 64.6555 44.2264 65.6168C42.6415 57.7571 43.8302 44.9215 52.717 38.9277L53.6226 43.2251C55.3774 40.4544 58.7736 36.7791 61.3208 34.2346C57.3019 32.6513 52.6604 32.1424 48.1321 32.9906C48.8679 33.6126 49.7736 34.4042 50.5094 35.0262C40.4906 39.267 35 46.222 31.3774 54.3079C31.2075 53.2335 31.1509 52.1026 31.1509 51.0283C31.1509 38.9277 40.9434 29.1455 53 29.1455Z" fill="white"/>
<path d="M102.612 63.0686C102.612 63.4543 102.612 63.84 102.612 64.2257C101.563 64.2257 100.57 64.2257 99.5211 64.2257C99.5211 64.942 99.5211 65.7135 99.5211 66.4298H102.943C102.943 66.8155 102.943 67.2012 102.943 67.5869H98.1966V59.9277H102.888C102.888 60.3134 102.888 60.6992 102.888 61.0849C101.729 61.0849 100.625 61.0849 99.4659 61.0849V63.0135C100.515 63.0686 101.563 63.0686 102.612 63.0686ZM92.8433 67.5318H88.1523V59.9277C88.5938 59.9277 89.0354 59.9277 89.4769 59.9277V66.3747H92.8985C92.8433 66.7604 92.8433 67.1461 92.8433 67.5318ZM117.954 59.9828L116.188 62.0216C115.967 61.9114 115.746 61.8563 115.526 61.7461L116.188 59.9828C116.74 59.9828 117.347 59.9828 117.954 59.9828ZM121.1 61.3604C120.934 61.4706 120.824 61.691 120.824 62.0767C120.824 62.7379 121.045 62.9583 121.652 63.0686L122.866 63.1788C124.08 63.289 124.797 63.9502 124.797 65.2726V65.7134C124.797 66.0441 124.742 66.3747 124.632 66.6502C124.521 66.9257 124.356 67.1461 124.135 67.3114C123.859 67.5318 123.528 67.5869 123.197 67.642C122.866 67.6971 122.479 67.6971 122.148 67.6971H119.665C119.665 67.2563 119.665 66.8155 119.665 66.3747H122.369C122.479 66.3747 122.59 66.3747 122.7 66.3747C123.252 66.3747 123.583 66.2645 123.528 65.4379C123.528 65.0522 123.418 64.8318 123.307 64.7216C123.142 64.6114 122.921 64.5563 122.645 64.5012L121.376 64.391C120.934 64.3359 120.437 64.2257 120.106 63.8951C119.775 63.5645 119.554 63.0686 119.554 62.242C119.554 62.1318 119.554 62.0216 119.554 61.8563C119.61 61.0298 119.886 60.5339 120.382 60.2583C120.879 59.9828 121.541 59.9277 122.204 59.9277H124.466C124.466 60.3686 124.466 60.8094 124.466 61.2502H122.038C121.596 61.2502 121.265 61.2502 121.1 61.3604ZM136.497 67.5318V59.9277H139.809C140.085 59.9277 140.471 60.0379 140.802 60.2583C141.133 60.4788 141.354 60.8645 141.354 61.4706V62.4073C141.354 63.0686 141.023 63.3992 140.802 63.6196C141.023 63.7849 141.354 64.1706 141.354 64.7767V65.989C141.354 66.8155 140.636 67.5318 139.809 67.5318H136.497ZM139.919 64.3359C139.864 64.2808 139.698 64.1706 139.588 64.1706H137.767V66.3196H139.588C139.698 66.3196 139.809 66.2645 139.919 66.1543C139.974 66.0992 140.029 65.989 140.029 65.8237V64.6665C140.085 64.6114 140.029 64.4461 139.919 64.3359ZM139.974 61.2502C139.864 61.14 139.753 61.0849 139.588 61.0849H137.767V63.0135H139.643C139.753 63.0135 139.864 62.9583 139.974 62.8481C140.085 62.7379 140.14 62.5726 140.14 62.4624V61.5808C140.085 61.5257 140.029 61.3604 139.974 61.2502ZM187.712 63.0686H190.803C190.803 63.4543 190.803 63.84 190.803 64.2257H187.712V66.4298H191.134C191.134 66.8155 191.134 67.2012 191.134 67.5869H186.443V59.9277C187.988 59.9277 189.588 59.9277 191.134 59.9277C191.134 60.3134 191.134 60.6992 191.134 61.0849H187.712V63.0686ZM180.482 67.5318H176.233V59.9277C176.674 59.9277 177.116 59.9277 177.557 59.9277V66.3747H180.482C180.482 66.7604 180.482 67.1461 180.482 67.5318ZM171.156 61.14H169.224V67.5318C168.782 67.5318 168.341 67.5318 167.899 67.5318V61.14H165.968C165.968 60.7543 165.968 60.3686 165.968 59.9828H171.156C171.156 60.3686 171.156 60.7543 171.156 61.14ZM160.835 61.14H158.904V67.5318C158.462 67.5318 158.021 67.5318 157.579 67.5318V61.14H155.648C155.648 60.7543 155.648 60.3686 155.648 59.9828H160.835C160.835 60.3686 160.835 60.7543 160.835 61.14ZM147.535 65.9339L147.149 67.5869H145.769L147.866 59.9828C148.418 59.9828 148.97 59.9828 149.577 59.9828L151.674 67.5869C151.233 67.5869 150.736 67.5869 150.294 67.5869L149.853 65.9339H147.535ZM147.811 64.7767H149.467L148.639 61.4706L147.811 64.7767ZM112.766 61.14C112.104 61.14 111.497 61.14 110.835 61.14V67.5318C110.393 67.5318 109.952 67.5318 109.51 67.5318V61.14C108.848 61.14 108.241 61.14 107.579 61.14C107.579 60.7543 107.579 60.3686 107.579 59.9828H112.766C112.766 60.3686 112.766 60.7543 112.766 61.14Z" fill="white"/>
<path d="M93.6147 39.2091L95.4911 49.8989H99.6854L104.321 33.0928H100.237L97.6987 44.003L95.9326 33.0928H94.1114H93.118H91.2968L89.5308 44.003L86.9921 33.0928H82.9082L87.544 49.8989H91.7383L93.6147 39.2091Z" fill="white"/>
<path d="M106.917 49.8989L107.69 46.4275H111.939L112.712 49.8989H116.52L111.884 33.0928H107.69L103.109 49.8989H106.917ZM109.842 37.2254L111.277 43.5622H108.407L109.842 37.2254Z" fill="white"/>
<path d="M122.093 43.6166H124.411L126.674 49.8982H130.868L127.888 42.9002C129.157 42.4594 129.985 41.3574 129.985 40.0349V36.288C129.985 34.7451 128.936 33.588 127.557 33.2574C126.674 33.037 125.791 33.0921 124.853 33.0921H118.506V49.8982H122.093V43.6166ZM122.093 36.3431H125.128C125.791 36.3431 126.398 36.6737 126.398 37.4451V39.0982C126.398 39.9247 125.846 40.3104 125.128 40.3104H122.093V36.3431Z" fill="white"/>
<path d="M140.746 50.0631C142.512 50.0631 143.561 49.5672 144.444 48.9059V39.9794H138.759V43.1753H140.856C140.856 44.2774 140.856 45.2141 140.856 46.3712C140.525 46.4263 140.139 46.4814 139.753 46.4814H138.318C136.276 46.4814 135.779 45.0488 135.779 43.5059V39.3182C135.779 37.7202 136.497 36.5631 138.428 36.5631H144.168V32.9814H138.207C134.896 32.9814 132.523 34.9651 132.192 38.3814C132.192 38.657 132.137 38.9325 132.137 39.208V44.057C132.137 47.5835 134.565 50.0631 137.876 50.0631H140.746Z" fill="white"/>
<path d="M149.41 49.8989L150.182 46.4275H154.432L155.204 49.8989H159.012L154.377 33.0928H150.182L145.602 49.8989H149.41ZM152.279 37.2254L153.714 43.5622H150.844L152.279 37.2254Z" fill="white"/>
<path d="M172.976 39.5948V49.8989H176.453V33.0928H171.928L168.561 45.6009L165.25 33.0928H160.725V49.8989H164.146V39.5948L166.74 49.8989H170.383L172.976 39.5948Z" fill="white"/>
<path d="M183.019 49.8989V33.0928H179.432V49.8989H183.019Z" fill="white"/>
<path d="M198.417 49.8989V33.0928H194.94V43.1213L189.532 33.0928H186V49.8989H189.422V39.8703L194.885 49.8989H198.417Z" fill="white"/>
<path d="M234.236 49.8989V33.0928H230.759V43.1213L225.35 33.0928H221.818V49.8989H225.24V39.8703L230.704 49.8989H234.236Z" fill="white"/>
<path d="M247.04 39.5948H240.583V36.3438H247.703V33.0928H236.996V49.8989H247.703V46.6479H240.583V42.7907H247.04V39.5948Z" fill="white"/>
<path d="M261.221 36.3438V33.0928H249.521V36.3438H253.605V49.8989H257.193V36.3438H261.221Z" fill="white"/>
<path d="M209.125 50.0631C210.891 50.0631 211.94 49.5672 212.823 48.9059V39.9794H207.138V43.1753H209.235C209.235 44.2774 209.235 45.2141 209.235 46.3712C208.904 46.4263 208.518 46.4814 208.132 46.4814H206.697C204.655 46.4814 204.158 45.0488 204.158 43.5059V39.3182C204.158 37.7202 204.875 36.5631 206.807 36.5631H212.547V32.9814H206.586C203.275 32.9814 200.902 34.9651 200.571 38.3814C200.571 38.657 200.516 38.9325 200.516 39.208V44.057C200.516 47.5835 202.944 50.0631 206.255 50.0631H209.125Z" fill="white"/>
<path fill-rule="evenodd" clip-rule="evenodd" d="M215.691 46.7578H219.168V50.1741H215.691V46.7578Z" fill="white"/>
</svg>
