<svg width="218" height="80" viewBox="0 0 218 80" fill="none" xmlns="http://www.w3.org/2000/svg">
<path d="M26.0801 0.5H191.92C196.636 0.5 200.141 0.500663 202.913 0.738281C205.678 0.97537 207.667 1.44593 209.36 2.35938C212.022 3.79538 214.205 5.97837 215.641 8.63965C216.554 10.3326 217.025 12.3216 217.262 15.0869C217.499 17.8587 217.5 21.3643 217.5 26.0801V53.9199C217.5 58.6357 217.499 62.1413 217.262 64.9131C217.025 67.6784 216.554 69.6674 215.641 71.3604C214.205 74.0216 212.022 76.2046 209.36 77.6406C207.667 78.5541 205.678 79.0246 202.913 79.2617C200.141 79.4993 196.636 79.5 191.92 79.5H26.0801C21.3643 79.5 17.8587 79.4993 15.0869 79.2617C12.3216 79.0246 10.3326 78.5541 8.63965 77.6406C5.97837 76.2046 3.79538 74.0216 2.35938 71.3604C1.44593 69.6674 0.97537 67.6784 0.738281 64.9131C0.500663 62.1413 0.5 58.6357 0.5 53.9199V26.0801C0.5 21.3643 0.500663 17.8587 0.738281 15.0869C0.97537 12.3216 1.44593 10.3326 2.35938 8.63965C3.79538 5.97837 5.97837 3.79538 8.63965 2.35938C10.3326 1.44593 12.3216 0.97537 15.0869 0.738281C17.1657 0.560068 19.6575 0.515165 22.7627 0.503906L26.0801 0.5Z" fill="black"/>
<path d="M26.0801 0.5H191.92C196.636 0.5 200.141 0.500663 202.913 0.738281C205.678 0.97537 207.667 1.44593 209.36 2.35938C212.022 3.79538 214.205 5.97837 215.641 8.63965C216.554 10.3326 217.025 12.3216 217.262 15.0869C217.499 17.8587 217.5 21.3643 217.5 26.0801V53.9199C217.5 58.6357 217.499 62.1413 217.262 64.9131C217.025 67.6784 216.554 69.6674 215.641 71.3604C214.205 74.0216 212.022 76.2046 209.36 77.6406C207.667 78.5541 205.678 79.0246 202.913 79.2617C200.141 79.4993 196.636 79.5 191.92 79.5H26.0801C21.3643 79.5 17.8587 79.4993 15.0869 79.2617C12.3216 79.0246 10.3326 78.5541 8.63965 77.6406C5.97837 76.2046 3.79538 74.0216 2.35938 71.3604C1.44593 69.6674 0.97537 67.6784 0.738281 64.9131C0.500663 62.1413 0.5 58.6357 0.5 53.9199V26.0801C0.5 21.3643 0.500663 17.8587 0.738281 15.0869C0.97537 12.3216 1.44593 10.3326 2.35938 8.63965C3.79538 5.97837 5.97837 3.79538 8.63965 2.35938C10.3326 1.44593 12.3216 0.97537 15.0869 0.738281C17.1657 0.560068 19.6575 0.515165 22.7627 0.503906L26.0801 0.5Z" stroke="#373737"/>
<g clip-path="url(#clip0_2119_186222)">
<path d="M129.254 43.2861C130.887 43.2861 132.254 41.9191 132.254 40.2861C132.254 38.6531 130.887 37.2861 129.254 37.2861C127.621 37.2861 126.254 38.6531 126.254 40.2861C126.254 41.9191 127.621 43.2861 129.254 43.2861Z" fill="#BC8C62"/>
<path d="M187.577 31.256C185.177 31.256 183.621 32.157 182.675 33.543C181.729 32.087 180.241 31.256 178.246 31.256C175.982 31.256 174.494 32.157 173.716 33.335V31.74H168.646V49.067H173.716V39.295C173.716 37.25 174.663 36.037 176.354 36.037C177.976 36.037 178.788 37.146 178.788 38.879V49.067H183.858V39.295C183.858 37.25 184.805 36.037 186.495 36.037C188.117 36.037 188.928 37.146 188.928 38.879V49.067H194V38.43C194 34.097 191.464 31.256 187.577 31.256ZM158.167 44.494C155.968 44.494 154.278 42.864 154.278 40.404C154.278 37.944 155.968 36.315 158.167 36.315C160.363 36.315 162.054 37.945 162.054 40.405C162.054 42.865 160.363 44.494 158.167 44.494ZM158.167 31.256C153.197 31.256 149.208 35.241 149.208 40.404C149.208 45.567 153.197 49.554 158.167 49.554C163.135 49.554 167.124 45.568 167.124 40.404C167.124 35.24 163.135 31.256 158.167 31.256Z" fill="#F4F4F4"/>
<path d="M142.012 44.736C139.815 44.736 138.193 43.106 138.193 40.716C138.193 38.324 139.815 36.696 142.012 36.696C143.5 36.696 144.717 37.424 145.292 38.636L149.721 36.002C148.267 33.333 145.359 31.567 142.081 31.567C136.942 31.567 133.122 35.552 133.122 40.715C133.122 45.878 136.942 49.865 142.081 49.865C145.393 49.865 148.267 48.096 149.721 45.394L145.292 42.794C144.751 44.007 143.5 44.736 142.012 44.736ZM108.308 44.944C105.975 44.944 104.285 43.314 104.285 40.715C104.285 38.116 105.975 36.487 108.308 36.487C110.641 36.487 112.331 38.116 112.331 40.715C112.331 43.315 110.641 44.944 108.308 44.944ZM112.331 33.681C111.216 32.364 109.56 31.567 107.294 31.567C102.866 31.567 99.214 35.552 99.214 40.715C99.214 45.878 102.866 49.865 107.294 49.865C109.56 49.865 111.216 49.067 112.332 47.75V49.379H117.402V32.052H112.332L112.331 33.681ZM95.395 27.2L90.325 28.758V32.051H87.62V37.041H90.324V43.175C90.324 48.026 92.251 50.071 98.877 49.378V44.666C96.646 44.803 95.394 44.666 95.394 43.175V37.042H98.877V32.051H95.394L95.395 27.2ZM81.137 49.068H86.207V31.74H81.137V49.068ZM119.763 49.068H124.833V24L119.763 25.584V49.068ZM70.523 44.631C68.189 44.631 66.497 43.003 66.497 40.406C66.497 37.804 68.189 36.179 70.523 36.179C72.853 36.179 74.545 37.804 74.545 40.406C74.545 43.003 72.853 44.631 70.523 44.631ZM71.537 31.257C69.27 31.257 67.614 32.052 66.497 33.368V31.742H61.427V56H66.497V47.438C67.614 48.754 69.27 49.553 71.537 49.553C75.967 49.553 79.615 45.567 79.615 40.406C79.615 35.239 75.966 31.256 71.537 31.256M49.967 44.632C47.636 44.632 45.946 43.002 45.946 40.403C45.946 37.804 47.636 36.175 49.967 36.175C52.3 36.175 53.991 37.804 53.991 40.403C53.991 43.003 52.301 44.632 49.967 44.632ZM53.991 33.369C52.875 32.052 51.219 31.255 48.953 31.255C44.525 31.255 40.873 35.24 40.873 40.403C40.873 45.566 44.525 49.553 48.953 49.553C51.219 49.553 52.875 48.755 53.991 47.438V49.067H59.062V31.741H53.991V33.369ZM32.891 36.383C34.378 36.383 35.595 37.112 36.17 38.324L40.598 35.69C39.145 33.021 36.238 31.254 32.958 31.254C27.82 31.254 24 35.24 24 40.404C24 45.568 27.82 49.552 32.958 49.552C36.271 49.552 39.145 47.784 40.598 45.082L36.17 42.482C35.63 43.695 34.378 44.424 32.89 44.424C30.694 44.424 29.07 42.794 29.07 40.404C29.07 38.012 30.694 36.384 32.89 36.384M83.733 30.45C85.389 30.45 86.775 29.027 86.775 27.33C86.775 25.633 85.389 24.21 83.733 24.21C82.076 24.21 80.691 25.63 80.691 27.329C80.691 29.026 82.076 30.45 83.733 30.45Z" fill="#F4F4F4"/>
</g>
<defs>
<clipPath id="clip0_2119_186222">
<rect width="170" height="32" fill="white" transform="translate(24 24)"/>
</clipPath>
</defs>
</svg>
