<?xml version="1.0" encoding="UTF-8"?>
<svg width="89px" height="96px" viewBox="0 0 89 96" version="1.1" xmlns="http://www.w3.org/2000/svg" xmlns:xlink="http://www.w3.org/1999/xlink">
    <!-- Generator: Sketch 54.1 (76490) - https://sketchapp.com -->
    <title>Group</title>
    <desc>Created with Sketch.</desc>
    <defs>
        <path d="M156,80.2666667 L124.428571,89.6 C106.36316,79.3452365 82.7747118,78.4 68.7142857,70 C54.6538597,61.6 54.6538597,56.3082261 50.2645127,52.0212312 C44.5005915,54.7748251 37.9247492,60.5470859 33.7091049,65.3279606 C38.4903462,57.6111719 43.9395742,51.3578893 51.4411769,46.5555846 C56.2135859,43.4999922 62.5267479,41.0704862 62.5267479,41.0704862 C65.0976137,38.4794308 67.0191388,32.9181734 64.8522709,27.0318389 C56.0853534,26.9912867 50.0257123,22.3515205 41.4576861,21.1751768 C37.7654399,11.1891128 58.3869963,12.0697222 50.3983063,0 C50.9720814,13.4244297 23.4662048,5.26585273 31.9210463,21.775877 C27.9033119,18.6892934 21.1917131,16.3725423 15.0830035,19.0720667 C17.1245831,22.5213123 19.5881523,25.5452543 23.5764456,27.0318389 C13.3207877,36.6730442 3.16522969,47.9218314 0.629038964,64.8772706 C-3.6045971,93.1777672 14.3659482,114.834295 29.5369681,125.850649 C25.8411235,120.062233 26.8126812,108.902463 30.7290072,104.374133 C44.9945485,87.8825718 86.9854664,97.897319 73.4948814,126" id="path-1"></path>
    </defs>
    <g id="Symbols" stroke="none" stroke-width="1" fill="none" fill-rule="evenodd">
        <g id="Icon/Step-10" transform="translate(-39.000000, -39.000000)">
            <g id="Group-2" transform="translate(39.000000, 33.000000)">
                <g id="Group" transform="translate(-7.000000, 6.000000)">
                    <mask id="mask-2" fill="white">
                        <use xlink:href="#path-1"></use>
                    </mask>
                    <use id="Fill-4" fill="#D4A077" xlink:href="#path-1"></use>
                    <path d="M65.9952044,33.2027027 C57.3585889,35.701595 49.3388746,40.6993797 41.9360613,48.1960567 C34.533248,55.6927337 28.7502131,68.5733274 24.5869565,86.8378378 C50.9586529,105.431989 67.8459077,112.854896 75.248721,109.106557 C81.7089635,105.83548 105.603727,113.791353 94.6811058,79.1198494 C93.6186747,75.7473914 84.0567076,61.3787605 65.9952044,36.0139566 L65.9952044,33.2027027 Z" id="Path" fill="#BB8961" mask="url(#mask-2)"></path>
                    <path d="M38.1521739,27.2432432 L45.7826087,30.1902287 C43.2391304,31.5 41.3315217,31.8274428 40.0597826,31.1725572 C38.7880435,30.5176715 38.1521739,29.2079002 38.1521739,27.2432432 Z" id="Path-2" fill="#9A6D48" mask="url(#mask-2)"></path>
                </g>
            </g>
        </g>
    </g>
</svg>