<?xml version="1.0" encoding="UTF-8"?>
<svg width="9px" height="16px" viewBox="0 0 9 16" version="1.1" xmlns="http://www.w3.org/2000/svg" xmlns:xlink="http://www.w3.org/1999/xlink">
    <!-- Generator: Sketch 54.1 (76490) - https://sketchapp.com -->
    <title>Combined Shape</title>
    <desc>Created with Sketch.</desc>
    <g id="Symbols" stroke="none" stroke-width="1" fill="none" fill-rule="evenodd">
        <g id="Icon/777-question-1-Copy-11" transform="translate(-85.000000, -82.000000)" fill="#F8F8F8">
            <g id="Group" transform="translate(60.000000, 60.000000)">
                <path d="M28.0849057,32 C28.0849057,31.5718633 28.1650935,31.1624213 28.3254717,30.7716616 C28.4858499,30.3809019 28.6855334,30.0462127 28.9245283,29.7675841 C29.1635232,29.4889555 29.4245269,29.2018363 29.7075472,28.9062181 C29.9905675,28.6105999 30.2515711,28.3421691 30.490566,28.1009174 C30.7295609,27.8596658 30.9292445,27.5827403 31.0896226,27.2701325 C31.2500008,26.9575248 31.3301887,26.6415239 31.3301887,26.3221203 C31.3301887,25.839617 31.1776745,25.4641536 30.8726415,25.1957187 C30.5676085,24.9272837 30.1352229,24.7930683 29.5754717,24.7930683 C28.4874159,24.7930683 27.720128,25.4114787 27.2735849,26.648318 L25,25.2313965 C25.3899391,24.1984318 26.0031405,23.4016338 26.8396226,22.8409786 C27.6761048,22.2803234 28.6194916,22 29.6698113,22 C30.2232732,22 30.7562867,22.0900433 31.2688679,22.2701325 C31.7814491,22.4502218 32.2421363,22.7067601 32.6509434,23.0397554 C33.0597505,23.3727506 33.3867912,23.8042787 33.6320755,24.3343527 C33.8773597,24.8644267 34,25.4556542 34,26.108053 C34,26.5973521 33.9198121,27.0628588 33.759434,27.5045872 C33.5990558,27.9463155 33.3993723,28.3183811 33.1603774,28.6207951 C32.9213825,28.9232091 32.6603788,29.2290165 32.3773585,29.5382263 C32.0943382,29.8474361 31.8333345,30.1192649 31.5943396,30.3537207 C31.3553447,30.5881765 31.1556612,30.8498117 30.995283,31.138634 C30.8349049,31.4274564 30.754717,31.7145755 30.754717,32 L28.0849057,32 Z M29.5,38 C28.3954305,38 27.5,37.1045695 27.5,36 C27.5,34.8954305 28.3954305,34 29.5,34 C30.6045695,34 31.5,34.8954305 31.5,36 C31.5,37.1045695 30.6045695,38 29.5,38 Z" id="Combined-Shape"></path>
            </g>
        </g>
    </g>
</svg>