<?xml version="1.0" encoding="UTF-8"?>
<svg width="60px" height="60px" viewBox="0 0 60 60" version="1.1" xmlns="http://www.w3.org/2000/svg" xmlns:xlink="http://www.w3.org/1999/xlink">
    <!-- Generator: Sketch 54.1 (76490) - https://sketchapp.com -->
    <title>Group 2</title>
    <desc>Created with Sketch.</desc>
    <g id="Symbols" stroke="none" stroke-width="1" fill="none" fill-rule="evenodd">
        <g id="Icon/777-question-1-Copy-11" transform="translate(-60.000000, -60.000000)">
            <g id="Group" transform="translate(60.000000, 60.000000)">
                <g id="Group-2">
                    <path d="M30,60 C13.4314575,60 0,46.5685425 0,30 C0,13.4314575 13.4314575,0 30,0 C46.5685425,0 60,13.4314575 60,30 C60,46.5685425 46.5685425,60 30,60 Z M30,54 C43.254834,54 54,43.254834 54,30 C54,16.745166 43.254834,6 30,6 C16.745166,6 6,16.745166 6,30 C6,43.254834 16.745166,54 30,54 Z" id="Combined-Shape" fill="#C4C4C4"></path>
                    <path d="M30,-4.4408921e-14 C33.1028218,-4.4408921e-14 36.0956237,0.471051293 38.9107946,1.34554286 L37.1286357,7.07643429 C34.8764989,6.37684103 32.4822574,6 30,6 L30,-4.61852778e-14 Z" id="Combined-Shape" fill="#BB8961"></path>
                </g>
            </g>
        </g>
    </g>
</svg>