<?xml version="1.0" encoding="UTF-8"?>
<svg width="96px" height="2px" viewBox="0 0 96 2" version="1.1" xmlns="http://www.w3.org/2000/svg" xmlns:xlink="http://www.w3.org/1999/xlink">
    <!-- Generator: Sketch 54.1 (76490) - https://sketchapp.com -->
    <title>Artboard Copy 2</title>
    <desc>Created with Sketch.</desc>
    <g id="Symbols" stroke="none" stroke-width="1" fill="none" fill-rule="evenodd">
        <g id="Artboard-Copy-2" fill="#D4A077">
            <g id="Group-8">
                <path d="M37,0 C37.5522847,-1.01453063e-16 38,0.44771525 38,1 C38,1.55228475 37.5522847,2 37,2 C36.4477153,2 36,1.55228475 36,1 C36,0.44771525 36.4477153,1.01453063e-16 37,0 Z M33,0 C33.5522847,-1.01453063e-16 34,0.44771525 34,1 C34,1.55228475 33.5522847,2 33,2 C32.4477153,2 32,1.55228475 32,1 C32,0.44771525 32.4477153,1.01453063e-16 33,0 Z M29,0 C29.5522847,-1.01453063e-16 30,0.44771525 30,1 C30,1.55228475 29.5522847,2 29,2 C28.4477153,2 28,1.55228475 28,1 C28,0.44771525 28.4477153,1.01453063e-16 29,0 Z M25,0 C25.5522847,-1.01453063e-16 26,0.44771525 26,1 C26,1.55228475 25.5522847,2 25,2 C24.4477153,2 24,1.55228475 24,1 C24,0.44771525 24.4477153,1.01453063e-16 25,0 Z M21,0 C21.5522847,-1.01453063e-16 22,0.44771525 22,1 C22,1.55228475 21.5522847,2 21,2 C20.4477153,2 20,1.55228475 20,1 C20,0.44771525 20.4477153,1.01453063e-16 21,0 Z M17,0 C17.5522847,-1.01453063e-16 18,0.44771525 18,1 C18,1.55228475 17.5522847,2 17,2 C16.4477153,2 16,1.55228475 16,1 C16,0.44771525 16.4477153,1.01453063e-16 17,0 Z M13,0 C13.5522847,-1.01453063e-16 14,0.44771525 14,1 C14,1.55228475 13.5522847,2 13,2 C12.4477153,2 12,1.55228475 12,1 C12,0.44771525 12.4477153,1.01453063e-16 13,0 Z M9,0 C9.55228475,-1.01453063e-16 10,0.44771525 10,1 C10,1.55228475 9.55228475,2 9,2 C8.44771525,2 8,1.55228475 8,1 C8,0.44771525 8.44771525,1.01453063e-16 9,0 Z M5,0 C5.55228475,-1.01453063e-16 6,0.44771525 6,1 C6,1.55228475 5.55228475,2 5,2 C4.44771525,2 4,1.55228475 4,1 C4,0.44771525 4.44771525,1.01453063e-16 5,0 Z M1,0 C1.55228475,-1.01453063e-16 2,0.44771525 2,1 C2,1.55228475 1.55228475,2 1,2 C0.44771525,2 6.76353751e-17,1.55228475 0,1 C-6.76353751e-17,0.44771525 0.44771525,1.01453063e-16 1,0 Z" id="Combined-Shape"></path>
                <path d="M77,0 C77.5522847,-1.01453063e-16 78,0.44771525 78,1 C78,1.55228475 77.5522847,2 77,2 C76.4477153,2 76,1.55228475 76,1 C76,0.44771525 76.4477153,1.01453063e-16 77,0 Z M73,0 C73.5522847,-1.01453063e-16 74,0.44771525 74,1 C74,1.55228475 73.5522847,2 73,2 C72.4477153,2 72,1.55228475 72,1 C72,0.44771525 72.4477153,1.01453063e-16 73,0 Z M69,0 C69.5522847,-1.01453063e-16 70,0.44771525 70,1 C70,1.55228475 69.5522847,2 69,2 C68.4477153,2 68,1.55228475 68,1 C68,0.44771525 68.4477153,1.01453063e-16 69,0 Z M65,0 C65.5522847,-1.01453063e-16 66,0.44771525 66,1 C66,1.55228475 65.5522847,2 65,2 C64.4477153,2 64,1.55228475 64,1 C64,0.44771525 64.4477153,1.01453063e-16 65,0 Z M61,0 C61.5522847,-1.01453063e-16 62,0.44771525 62,1 C62,1.55228475 61.5522847,2 61,2 C60.4477153,2 60,1.55228475 60,1 C60,0.44771525 60.4477153,1.01453063e-16 61,0 Z M57,0 C57.5522847,-1.01453063e-16 58,0.44771525 58,1 C58,1.55228475 57.5522847,2 57,2 C56.4477153,2 56,1.55228475 56,1 C56,0.44771525 56.4477153,1.01453063e-16 57,0 Z M53,0 C53.5522847,-1.01453063e-16 54,0.44771525 54,1 C54,1.55228475 53.5522847,2 53,2 C52.4477153,2 52,1.55228475 52,1 C52,0.44771525 52.4477153,1.01453063e-16 53,0 Z M49,0 C49.5522847,-1.01453063e-16 50,0.44771525 50,1 C50,1.55228475 49.5522847,2 49,2 C48.4477153,2 48,1.55228475 48,1 C48,0.44771525 48.4477153,1.01453063e-16 49,0 Z M45,0 C45.5522847,-1.01453063e-16 46,0.44771525 46,1 C46,1.55228475 45.5522847,2 45,2 C44.4477153,2 44,1.55228475 44,1 C44,0.44771525 44.4477153,1.01453063e-16 45,0 Z M41,0 C41.5522847,-1.01453063e-16 42,0.44771525 42,1 C42,1.55228475 41.5522847,2 41,2 C40.4477153,2 40,1.55228475 40,1 C40,0.44771525 40.4477153,1.01453063e-16 41,0 Z" id="Combined-Shape-Copy-9"></path>
                <path d="M117,0 C117.552285,-1.01453063e-16 118,0.44771525 118,1 C118,1.55228475 117.552285,2 117,2 C116.447715,2 116,1.55228475 116,1 C116,0.44771525 116.447715,1.01453063e-16 117,0 Z M113,0 C113.552285,-1.01453063e-16 114,0.44771525 114,1 C114,1.55228475 113.552285,2 113,2 C112.447715,2 112,1.55228475 112,1 C112,0.44771525 112.447715,1.01453063e-16 113,0 Z M109,0 C109.552285,-1.01453063e-16 110,0.44771525 110,1 C110,1.55228475 109.552285,2 109,2 C108.447715,2 108,1.55228475 108,1 C108,0.44771525 108.447715,1.01453063e-16 109,0 Z M105,0 C105.552285,-1.01453063e-16 106,0.44771525 106,1 C106,1.55228475 105.552285,2 105,2 C104.447715,2 104,1.55228475 104,1 C104,0.44771525 104.447715,1.01453063e-16 105,0 Z M101,0 C101.552285,-1.01453063e-16 102,0.44771525 102,1 C102,1.55228475 101.552285,2 101,2 C100.447715,2 100,1.55228475 100,1 C100,0.44771525 100.447715,1.01453063e-16 101,0 Z M97,0 C97.5522847,-1.01453063e-16 98,0.44771525 98,1 C98,1.55228475 97.5522847,2 97,2 C96.4477153,2 96,1.55228475 96,1 C96,0.44771525 96.4477153,1.01453063e-16 97,0 Z M93,0 C93.5522847,-1.01453063e-16 94,0.44771525 94,1 C94,1.55228475 93.5522847,2 93,2 C92.4477153,2 92,1.55228475 92,1 C92,0.44771525 92.4477153,1.01453063e-16 93,0 Z M89,0 C89.5522847,-1.01453063e-16 90,0.44771525 90,1 C90,1.55228475 89.5522847,2 89,2 C88.4477153,2 88,1.55228475 88,1 C88,0.44771525 88.4477153,1.01453063e-16 89,0 Z M85,0 C85.5522847,-1.01453063e-16 86,0.44771525 86,1 C86,1.55228475 85.5522847,2 85,2 C84.4477153,2 84,1.55228475 84,1 C84,0.44771525 84.4477153,1.01453063e-16 85,0 Z M81,0 C81.5522847,-1.01453063e-16 82,0.44771525 82,1 C82,1.55228475 81.5522847,2 81,2 C80.4477153,2 80,1.55228475 80,1 C80,0.44771525 80.4477153,1.01453063e-16 81,0 Z" id="Combined-Shape-Copy-10"></path>
            </g>
        </g>
    </g>
</svg>