<?xml version="1.0" encoding="UTF-8"?>
<svg width="10px" height="16px" viewBox="0 0 10 16" version="1.1" xmlns="http://www.w3.org/2000/svg" xmlns:xlink="http://www.w3.org/1999/xlink">
    <!-- Generator: Sketch 54.1 (76490) - https://sketchapp.com -->
    <title>Combined Shape</title>
    <desc>Created with Sketch.</desc>
    <g id="Symbols" stroke="none" stroke-width="1" fill="none" fill-rule="evenodd">
        <g id="Icon/777-question-1-Copy-6" transform="translate(-53.000000, -61.000000)" fill="#F8F8F8">
            <g id="Group" transform="translate(46.000000, 55.000000)">
                <path d="M10.5849057,16 C10.5849057,15.5718633 10.6650935,15.1624213 10.8254717,14.7716616 C10.9858499,14.3809019 11.1855334,14.0462127 11.4245283,13.7675841 C11.6635232,13.4889555 11.9245269,13.2018363 12.2075472,12.9062181 C12.4905675,12.6105999 12.7515711,12.3421691 12.990566,12.1009174 C13.2295609,11.8596658 13.4292445,11.5827403 13.5896226,11.2701325 C13.7500008,10.9575248 13.8301887,10.6415239 13.8301887,10.3221203 C13.8301887,9.83961702 13.6776745,9.46415357 13.3726415,9.19571865 C13.0676085,8.92728374 12.6352229,8.7930683 12.0754717,8.7930683 C10.9874159,8.7930683 10.220128,9.4114787 9.77358491,10.648318 L7.5,9.23139653 C7.88993906,8.1984318 8.50314047,7.40163379 9.33962264,6.84097859 C10.1761048,6.28032339 11.1194916,6 12.1698113,6 C12.7232732,6 13.2562867,6.09004327 13.7688679,6.27013252 C14.2814491,6.45022176 14.7421363,6.70676014 15.1509434,7.03975535 C15.5597505,7.37275056 15.8867912,7.8042787 16.1320755,8.3343527 C16.3773597,8.86442671 16.5,9.45565423 16.5,10.108053 C16.5,10.5973521 16.4198121,11.0628588 16.259434,11.5045872 C16.0990558,11.9463155 15.8993723,12.3183811 15.6603774,12.6207951 C15.4213825,12.9232091 15.1603788,13.2290165 14.8773585,13.5382263 C14.5943382,13.8474361 14.3333345,14.1192649 14.0943396,14.3537207 C13.8553447,14.5881765 13.6556612,14.8498117 13.495283,15.138634 C13.3349049,15.4274564 13.254717,15.7145755 13.254717,16 L10.5849057,16 Z M12,22 C10.8954305,22 10,21.1045695 10,20 C10,18.8954305 10.8954305,18 12,18 C13.1045695,18 14,18.8954305 14,20 C14,21.1045695 13.1045695,22 12,22 Z" id="Combined-Shape"></path>
            </g>
        </g>
    </g>
</svg>