<svg width="61" height="118" xmlns="http://www.w3.org/2000/svg"><g fill-rule="nonzero" fill="none"><path fill="#D4A077" d="M0 54h42v64H0z"/><path fill="#BB8961" d="M61 54H41v64h20z"/><path fill="#D4A077" d="M9 28h24v26H9z"/><path fill="#BB8961" d="M53 28H33v26h20z"/><path fill="#D4A077" d="M15 24h12v4H15z"/><path fill="#BB8961" d="M27 24h12v4H27zM15 34h4v42h-4zM7 60h4v16H7zM31 60h4v16h-4zM23 34h4v42h-4z"/><path d="M15 34h4v4l-4-4zm8 0h4v4l-4-4zM7 60h4v4l-4-4zm24 0h4v4l-4-4zM37 34h4v20h-4V34zm8 0h4v20h-4V34zM45 60h4v58h-4V60zm8 0h4v58h-4V60z" fill="#9A6D48"/><path fill="#D4A077" d="M25 16h8v8h-8z"/><path fill="#BB8961" d="M29 16h4v8h-4z"/><path fill="#D4A077" d="M27 0h2v20h-2z"/><path fill="#BB8961" d="M29 0h2v20h-2zM7 80h4v38H7V80zm8 0h4v38h-4V80zm8 0h4v38h-4V80zm8 0h4v38h-4V80z"/><path d="M7 80h4v4l-4-4zm8 0h4v4l-4-4zM23 80h4v4l-4-4zm8 0h4v4l-4-4z" fill="#9A6D48"/></g></svg>