<svg width="288" height="102" viewBox="0 0 288 102" fill="none" xmlns="http://www.w3.org/2000/svg">
<path d="M26.0801 0.5H261.544C266.259 0.5 269.764 0.500694 272.536 0.738281C275.302 0.97536 277.291 1.44589 278.984 2.35938C281.646 3.7954 283.829 5.97839 285.265 8.63965C286.178 10.3326 286.649 12.3216 286.886 15.0869C287.123 17.8587 287.124 21.3643 287.124 26.0801V75.9199C287.124 80.6354 287.123 84.1404 286.886 86.9121C286.649 89.6776 286.178 91.6674 285.265 93.3604C283.829 96.0215 281.646 98.2046 278.984 99.6406C277.291 100.554 275.302 101.025 272.536 101.262C269.764 101.499 266.259 101.5 261.544 101.5H26.0801C21.3644 101.5 17.8587 101.499 15.0869 101.262C12.3216 101.025 10.3326 100.554 8.63965 99.6406C5.97839 98.2047 3.7954 96.0216 2.35938 93.3604C1.44589 91.6674 0.97536 89.6776 0.738281 86.9121C0.500695 84.1404 0.5 80.6354 0.5 75.9199V26.0801C0.5 21.3643 0.500663 17.8587 0.738281 15.0869C0.97537 12.3216 1.44593 10.3326 2.35938 8.63965C3.79538 5.97837 5.97837 3.79538 8.63965 2.35938C10.3326 1.44593 12.3216 0.97537 15.0869 0.738281C17.8587 0.500663 21.3643 0.5 26.0801 0.5Z" fill="black"/>
<path d="M26.0801 0.5H261.544C266.259 0.5 269.764 0.500694 272.536 0.738281C275.302 0.97536 277.291 1.44589 278.984 2.35938C281.646 3.7954 283.829 5.97839 285.265 8.63965C286.178 10.3326 286.649 12.3216 286.886 15.0869C287.123 17.8587 287.124 21.3643 287.124 26.0801V75.9199C287.124 80.6354 287.123 84.1404 286.886 86.9121C286.649 89.6776 286.178 91.6674 285.265 93.3604C283.829 96.0215 281.646 98.2046 278.984 99.6406C277.291 100.554 275.302 101.025 272.536 101.262C269.764 101.499 266.259 101.5 261.544 101.5H26.0801C21.3644 101.5 17.8587 101.499 15.0869 101.262C12.3216 101.025 10.3326 100.554 8.63965 99.6406C5.97839 98.2047 3.7954 96.0216 2.35938 93.3604C1.44589 91.6674 0.97536 89.6776 0.738281 86.9121C0.500695 84.1404 0.5 80.6354 0.5 75.9199V26.0801C0.5 21.3643 0.500663 17.8587 0.738281 15.0869C0.97537 12.3216 1.44593 10.3326 2.35938 8.63965C3.79538 5.97837 5.97837 3.79538 8.63965 2.35938C10.3326 1.44593 12.3216 0.97537 15.0869 0.738281C17.8587 0.500663 21.3643 0.5 26.0801 0.5Z" stroke="#373737"/>
<g clip-path="url(#clip0_2120_186298)">
<path fill-rule="evenodd" clip-rule="evenodd" d="M53 24C67.9434 24 80 36.1005 80 50.9717C80 65.8429 67.9434 78 53 78C38.0566 78 26 65.8995 26 50.9717C26 36.044 38.1132 24 53 24ZM53 29.1455C65.1132 29.1455 74.9057 38.9277 74.9057 51.0283C74.9057 59.0576 70.5472 66.1257 64.0377 69.9141C65.3962 65.1644 65.9623 60.3016 65.7358 54.7037C67.1509 55.0995 67.9434 55.3257 69.3585 55.778C67.717 51.6503 65.9623 47.9183 63.6415 44.1298C61.6038 48.0314 58.8302 51.7068 56.0566 54.5906L60.5849 54.3079C56.6792 61.2628 51.1887 64.6555 44.2264 65.6168C42.6415 57.7571 43.8302 44.9215 52.717 38.9277L53.6226 43.2251C55.3774 40.4544 58.7736 36.7791 61.3208 34.2346C57.3019 32.6513 52.6604 32.1424 48.1321 32.9906C48.8679 33.6126 49.7736 34.4042 50.5094 35.0262C40.4906 39.267 35 46.222 31.3774 54.3079C31.2075 53.2335 31.1509 52.1026 31.1509 51.0283C31.1509 38.9277 40.9434 29.1455 53 29.1455Z" fill="white"/>
<path d="M102.487 63.0685C102.487 63.4542 102.487 63.84 102.487 64.2257C101.441 64.2257 100.449 64.2257 99.4017 64.2257C99.4017 64.942 99.4017 65.7134 99.4017 66.4297H102.818C102.818 66.8155 102.818 67.2012 102.818 67.5869H98.0793V59.9277H102.763C102.763 60.3134 102.763 60.6992 102.763 61.0849C101.606 61.0849 100.504 61.0849 99.3466 61.0849V63.0134C100.394 63.0685 101.441 63.0685 102.487 63.0685ZM92.7344 67.5318H88.0508V59.9277C88.4916 59.9277 88.9324 59.9277 89.3732 59.9277V66.3746H92.7895C92.7344 66.7604 92.7344 67.1461 92.7344 67.5318ZM117.806 59.9828L116.042 62.0216C115.822 61.9114 115.602 61.8563 115.381 61.7461L116.042 59.9828C116.593 59.9828 117.2 59.9828 117.806 59.9828ZM120.947 61.3604C120.781 61.4706 120.671 61.691 120.671 62.0767C120.671 62.7379 120.891 62.9583 121.498 63.0685L122.71 63.1787C123.922 63.2889 124.638 63.9502 124.638 65.2726V65.7134C124.638 66.044 124.583 66.3746 124.473 66.6501C124.363 66.9257 124.198 67.1461 123.977 67.3114C123.702 67.5318 123.371 67.5869 123.04 67.642C122.71 67.6971 122.324 67.6971 121.993 67.6971H119.514C119.514 67.2563 119.514 66.8155 119.514 66.3746H122.214C122.324 66.3746 122.434 66.3746 122.544 66.3746C123.095 66.3746 123.426 66.2644 123.371 65.4379C123.371 65.0522 123.261 64.8318 123.151 64.7216C122.985 64.6114 122.765 64.5563 122.489 64.5012L121.222 64.391C120.781 64.3359 120.285 64.2257 119.955 63.8951C119.624 63.5645 119.404 63.0685 119.404 62.242C119.404 62.1318 119.404 62.0216 119.404 61.8563C119.459 61.0298 119.734 60.5339 120.23 60.2583C120.726 59.9828 121.387 59.9277 122.049 59.9277H124.308C124.308 60.3685 124.308 60.8094 124.308 61.2502H121.883C121.442 61.2502 121.112 61.2502 120.947 61.3604ZM136.32 67.5318V59.9277H139.626C139.902 59.9277 140.287 60.0379 140.618 60.2583C140.948 60.4788 141.169 60.8645 141.169 61.4706V62.4073C141.169 63.0685 140.838 63.3991 140.618 63.6196C140.838 63.7849 141.169 64.1706 141.169 64.7767V65.9889C141.169 66.8155 140.453 67.5318 139.626 67.5318H136.32ZM139.736 64.3359C139.681 64.2808 139.516 64.1706 139.406 64.1706H137.587V66.3195H139.406C139.516 66.3195 139.626 66.2644 139.736 66.1542C139.791 66.0991 139.846 65.9889 139.846 65.8236V64.6665C139.902 64.6114 139.846 64.4461 139.736 64.3359ZM139.791 61.2502C139.681 61.14 139.571 61.0849 139.406 61.0849H137.587V63.0134H139.461C139.571 63.0134 139.681 62.9583 139.791 62.8481C139.902 62.7379 139.957 62.5726 139.957 62.4624V61.5808C139.902 61.5257 139.846 61.3604 139.791 61.2502ZM187.454 63.0685H190.54C190.54 63.4542 190.54 63.84 190.54 64.2257H187.454V66.4297H190.871C190.871 66.8155 190.871 67.2012 190.871 67.5869H186.187V59.9277C187.73 59.9277 189.328 59.9277 190.871 59.9277C190.871 60.3134 190.871 60.6992 190.871 61.0849H187.454V63.0685ZM180.236 67.5318H175.993V59.9277C176.434 59.9277 176.875 59.9277 177.316 59.9277V66.3746H180.236C180.236 66.7604 180.236 67.1461 180.236 67.5318ZM170.924 61.14H168.995V67.5318C168.554 67.5318 168.114 67.5318 167.673 67.5318V61.14H165.744C165.744 60.7543 165.744 60.3686 165.744 59.9828H170.924C170.924 60.3686 170.924 60.7543 170.924 61.14ZM160.62 61.14H158.691V67.5318C158.25 67.5318 157.81 67.5318 157.369 67.5318V61.14H155.44C155.44 60.7543 155.44 60.3686 155.44 59.9828H160.62C160.62 60.3686 160.62 60.7543 160.62 61.14ZM147.34 65.9338L146.955 67.5869H145.577L147.671 59.9828C148.222 59.9828 148.773 59.9828 149.379 59.9828L151.473 67.5869C151.032 67.5869 150.536 67.5869 150.095 67.5869L149.655 65.9338H147.34ZM147.616 64.7767H149.269L148.442 61.4706L147.616 64.7767ZM112.626 61.14C111.965 61.14 111.359 61.14 110.698 61.14V67.5318C110.257 67.5318 109.816 67.5318 109.375 67.5318V61.14C108.714 61.14 108.108 61.14 107.447 61.14C107.447 60.7543 107.447 60.3686 107.447 59.9828H112.626C112.626 60.3686 112.626 60.7543 112.626 61.14Z" fill="white"/>
<path d="M93.5042 39.2091L95.3776 49.8988H99.5654L104.194 33.0928H100.116L97.5817 44.0029L95.8185 33.0928H94.0001H93.0083H91.1899L89.4267 44.0029L86.892 33.0928H82.8145L87.443 49.8988H91.6307L93.5042 39.2091Z" fill="white"/>
<path d="M106.784 49.8988L107.556 46.4274H111.799L112.57 49.8988H116.372L111.744 33.0928H107.556L102.982 49.8988H106.784ZM109.705 37.2254L111.137 43.5621H108.272L109.705 37.2254Z" fill="white"/>
<path d="M121.937 43.6165H124.251L126.511 49.8981H130.698L127.723 42.9002C128.99 42.4594 129.817 41.3573 129.817 40.0349V36.288C129.817 34.7451 128.77 33.588 127.392 33.2574C126.511 33.037 125.629 33.0921 124.692 33.0921H118.355V49.8981H121.937V43.6165ZM121.937 36.3431H124.968C125.629 36.3431 126.235 36.6737 126.235 37.4451V39.0982C126.235 39.9247 125.684 40.3104 124.968 40.3104H121.937V36.3431Z" fill="white"/>
<path d="M140.561 50.063C142.324 50.063 143.371 49.5671 144.253 48.9059V39.9794H138.577V43.1753H140.671C140.671 44.2773 140.671 45.214 140.671 46.3712C140.34 46.4263 139.955 46.4814 139.569 46.4814H138.136C136.097 46.4814 135.602 45.0487 135.602 43.5059V39.3181C135.602 37.7202 136.318 36.5631 138.246 36.5631H143.977V32.9814H138.026C134.72 32.9814 132.351 34.9651 132.02 38.3814C132.02 38.6569 131.965 38.9324 131.965 39.2079V44.0569C131.965 47.5834 134.389 50.063 137.695 50.063H140.561Z" fill="white"/>
<path d="M149.212 49.8988L149.984 46.4274H154.226L154.998 49.8988H158.8L154.171 33.0928H149.984L145.41 49.8988H149.212ZM152.077 37.2254L153.51 43.5621H150.645L152.077 37.2254Z" fill="white"/>
<path d="M172.74 39.5948V49.8988H176.212V33.0928H171.693L168.332 45.6009L165.026 33.0928H160.508V49.8988H163.924V39.5948L166.514 49.8988H170.151L172.74 39.5948Z" fill="white"/>
<path d="M182.769 49.8988V33.0928H179.188V49.8988H182.769Z" fill="white"/>
<path d="M198.142 49.8988V33.0928H194.671V43.1213L189.271 33.0928H185.744V49.8988H189.16V39.8703L194.616 49.8988H198.142Z" fill="white"/>
<path d="M233.904 49.8988V33.0928H230.432V43.1213L225.032 33.0928H221.506V49.8988H224.922V39.8703L230.377 49.8988H233.904Z" fill="white"/>
<path d="M246.689 39.5948H240.242V36.3438H247.35V33.0928H236.66V49.8988H247.35V46.6478H240.242V42.7907H246.689V39.5948Z" fill="white"/>
<path d="M260.848 36.3438V33.0928H249.166V36.3438H253.244V49.8988H256.825V36.3438H260.848Z" fill="white"/>
<path d="M208.832 50.063C210.595 50.063 211.642 49.5671 212.524 48.9059V39.9794H206.849V43.1753H208.942C208.942 44.2773 208.942 45.214 208.942 46.3712C208.612 46.4263 208.226 46.4814 207.84 46.4814H206.408C204.369 46.4814 203.873 45.0487 203.873 43.5059V39.3181C203.873 37.7202 204.589 36.5631 206.518 36.5631H212.249V32.9814H206.298C202.991 32.9814 200.622 34.9651 200.291 38.3814C200.291 38.6569 200.236 38.9324 200.236 39.2079V44.0569C200.236 47.5834 202.661 50.063 205.967 50.063H208.832Z" fill="white"/>
<path fill-rule="evenodd" clip-rule="evenodd" d="M215.389 46.7578H218.86V50.1741H215.389V46.7578Z" fill="white"/>
</g>
<defs>
<clipPath id="clip0_2120_186298">
<rect width="239.624" height="53.9997" fill="white" transform="translate(24 24)"/>
</clipPath>
</defs>
</svg>
