<svg width="281" height="88" viewBox="0 0 281 88" fill="none" xmlns="http://www.w3.org/2000/svg">
<path d="M26.0801 0.5H254.92C259.636 0.5 263.141 0.500663 265.913 0.738281C268.678 0.97537 270.667 1.44593 272.36 2.35938C275.022 3.79538 277.205 5.97837 278.641 8.63965C279.554 10.3326 280.025 12.3216 280.262 15.0869C280.499 17.8587 280.5 21.3643 280.5 26.0801V61.9199C280.5 66.6357 280.499 70.1413 280.262 72.9131C280.025 75.6784 279.554 77.6674 278.641 79.3604C277.205 82.0216 275.022 84.2046 272.36 85.6406C270.667 86.5541 268.678 87.0246 265.913 87.2617C263.141 87.4993 259.636 87.5 254.92 87.5H26.0801C21.3643 87.5 17.8587 87.4993 15.0869 87.2617C12.3216 87.0246 10.3326 86.5541 8.63965 85.6406C5.97837 84.2046 3.79538 82.0216 2.35938 79.3604C1.44593 77.6674 0.97537 75.6784 0.738281 72.9131C0.500663 70.1413 0.5 66.6357 0.5 61.9199V26.0801C0.5 21.3643 0.500663 17.8587 0.738281 15.0869C0.97537 12.3216 1.44593 10.3326 2.35938 8.63965C3.79538 5.97837 5.97837 3.79538 8.63965 2.35938C10.3326 1.44593 12.3216 0.97537 15.0869 0.738281C17.8587 0.500663 21.3643 0.5 26.0801 0.5Z" fill="black"/>
<path d="M26.0801 0.5H254.92C259.636 0.5 263.141 0.500663 265.913 0.738281C268.678 0.97537 270.667 1.44593 272.36 2.35938C275.022 3.79538 277.205 5.97837 278.641 8.63965C279.554 10.3326 280.025 12.3216 280.262 15.0869C280.499 17.8587 280.5 21.3643 280.5 26.0801V61.9199C280.5 66.6357 280.499 70.1413 280.262 72.9131C280.025 75.6784 279.554 77.6674 278.641 79.3604C277.205 82.0216 275.022 84.2046 272.36 85.6406C270.667 86.5541 268.678 87.0246 265.913 87.2617C263.141 87.4993 259.636 87.5 254.92 87.5H26.0801C21.3643 87.5 17.8587 87.4993 15.0869 87.2617C12.3216 87.0246 10.3326 86.5541 8.63965 85.6406C5.97837 84.2046 3.79538 82.0216 2.35938 79.3604C1.44593 77.6674 0.97537 75.6784 0.738281 72.9131C0.500663 70.1413 0.5 66.6357 0.5 61.9199V26.0801C0.5 21.3643 0.500663 17.8587 0.738281 15.0869C0.97537 12.3216 1.44593 10.3326 2.35938 8.63965C3.79538 5.97837 5.97837 3.79538 8.63965 2.35938C10.3326 1.44593 12.3216 0.97537 15.0869 0.738281C17.8587 0.500663 21.3643 0.5 26.0801 0.5Z" stroke="#373737"/>
<g clip-path="url(#clip0_2128_143868)">
<path d="M24 25.6719H32.2921V40.5802H47.5847V25.6719H55.9355V63.3535H47.5847V48.1957H32.2921V63.3535H24V25.6719Z" fill="white"/>
<path d="M59.9434 49.0924V48.975C59.9744 44.9715 61.5898 41.1433 64.4364 38.3275C67.283 35.5117 71.129 33.9375 75.1333 33.9493H75.5442C84.4967 33.9493 91.101 40.567 91.101 48.8576V48.9603C91.0739 52.9663 89.4601 56.7983 86.6131 59.6173C83.7661 62.4362 79.9179 64.0124 75.9111 64.0006H75.5002C66.5623 63.986 59.9434 57.3829 59.9434 49.0924ZM83.0878 49.0924V48.975C83.131 47.9704 82.9753 46.9671 82.6294 46.0229C82.2836 45.0787 81.7545 44.2121 81.0726 43.4731C80.3906 42.734 79.5693 42.1369 78.6558 41.7163C77.7423 41.2956 76.7547 41.0597 75.7497 41.0219H75.5002C74.523 41.0004 73.5514 41.1743 72.6424 41.5334C71.7334 41.8924 70.9053 42.4295 70.2067 43.1129C69.5081 43.7963 68.9531 44.6124 68.5742 45.5132C68.1954 46.4141 68.0004 47.3815 68.0006 48.3587C67.9858 48.554 67.9858 48.7503 68.0006 48.9456V49.0483C67.9172 51.0778 68.6433 53.0573 70.0195 54.5514C71.3956 56.0456 73.3089 56.9322 75.3387 57.016H75.5589C76.5899 57.0462 77.6157 56.8587 78.5694 56.4658C79.5231 56.0728 80.3832 55.4833 81.0936 54.7356C81.804 53.9879 82.3488 53.0989 82.6924 52.1265C83.036 51.1542 83.1707 50.1203 83.0878 49.0924Z" fill="white"/>
<path d="M94.709 53.1862V34.4922H102.869V50.6331C102.869 54.5069 104.689 56.5025 107.815 56.5025C110.941 56.5025 112.937 54.5069 112.937 50.6331V34.4922H121.112V63.355H112.981V59.2317C112.055 60.6433 110.795 61.8048 109.313 62.6136C107.83 63.4224 106.172 63.8534 104.483 63.8686C98.334 63.8832 94.709 59.7893 94.709 53.1862Z" fill="white"/>
<path d="M125.031 48.9743V48.8716C125.031 39.2311 131.327 33.9633 138.24 33.9633C139.966 33.9197 141.678 34.2821 143.238 35.0213C144.798 35.7604 146.163 36.8556 147.222 38.2186V24H155.426V63.3544H147.222V59.2311C146.236 60.6992 144.896 61.8959 143.327 62.7112C141.757 63.5266 140.008 63.9344 138.24 63.8973C131.445 63.8826 125.031 58.6148 125.031 48.9743ZM147.266 48.9743V48.8716C147.266 44.088 144.081 40.9039 140.265 40.9039C136.449 40.9039 133.162 44.0293 133.162 48.8716V48.9743C133.162 53.7726 136.391 56.9567 140.265 56.9567C144.14 56.9567 147.266 53.7726 147.266 48.9743Z" fill="white"/>
<path d="M160.664 24.0439H169.279V31.3807H160.664V24.0439ZM160.884 34.4915H169.059V63.3543H160.87L160.884 34.4915Z" fill="white"/>
<path d="M174.623 34.4911H182.798V38.5997C183.721 37.1785 184.984 36.0101 186.473 35.2004C187.962 34.3908 189.63 33.9654 191.325 33.9629C197.518 33.9629 201.128 38.0568 201.128 44.6599V63.3539H192.939V47.2131C192.939 43.3393 191.119 41.3437 187.993 41.3437C184.867 41.3437 182.871 43.3539 182.871 47.2131V63.3539H174.682L174.623 34.4911Z" fill="white"/>
<path d="M206.16 24.0439H214.775V31.3807H206.16V24.0439ZM206.38 34.4915H214.555V63.3543H206.366L206.38 34.4915Z" fill="white"/>
<path d="M220.91 58.1016V63.3547H225.503C223.411 62.1865 221.789 60.3304 220.91 58.1016Z" fill="#FF4713"/>
<path d="M240.121 52.5993C240.064 50.0317 239.017 47.5855 237.198 45.7722C235.379 43.959 232.929 42.9193 230.361 42.8707C228.607 42.761 226.849 43.0277 225.206 43.6528C223.563 44.2779 222.073 45.247 220.836 46.4951V51.5574C221.496 49.729 222.711 48.1522 224.31 47.0474C225.91 45.9425 227.815 45.3647 229.759 45.3946C231.659 45.3413 233.506 46.0274 234.91 47.3083C236.315 48.5892 237.167 50.365 237.288 52.2618C237.288 55.71 235.82 58.2632 231.946 58.8795C229.818 59.2317 226.486 57.9698 226.618 54.7563C226.645 54.0815 226.932 53.4433 227.419 52.9754C227.906 52.5076 228.555 52.2466 229.231 52.2471H229.407C229.137 52.5421 228.97 52.916 228.929 53.3135C228.888 53.711 228.976 54.1111 229.18 54.4548C229.384 54.7984 229.693 55.0674 230.062 55.2221C230.43 55.3768 230.839 55.409 231.227 55.3139C231.905 55.1827 232.515 54.8165 232.95 54.2797C233.385 53.7429 233.617 53.0699 233.604 52.3792C233.508 51.4475 233.046 50.5921 232.32 50.0006C231.593 49.4092 230.662 49.13 229.73 49.2243H229.598C228.847 49.2009 228.1 49.326 227.398 49.5924C226.696 49.8589 226.054 50.2614 225.509 50.7769C224.963 51.2924 224.525 51.9106 224.219 52.5961C223.913 53.2815 223.746 54.0207 223.727 54.7709V54.9177C223.624 58.8795 227.338 61.4914 231.065 61.5354C236.818 61.6381 240.121 57.9844 240.121 52.5993Z" fill="#FF4713"/>
<path d="M220.91 34.4922V42.7974C223.648 40.7221 226.999 39.6173 230.435 39.6573C238.624 39.6573 243.834 45.3506 243.82 52.5993C243.926 54.774 243.42 56.9349 242.359 58.8363C241.297 60.7377 239.724 62.3032 237.817 63.355H249.778V34.4922H220.91Z" fill="#FF4713"/>
<path d="M251.996 35.1524H251.086V34.5508H253.624V35.1524H252.715V37.5148H252.069L251.996 35.1524Z" fill="#FF4713"/>
<path d="M254.051 34.5508H254.74L255.533 35.8127L256.296 34.5508H257V37.4855H256.355V35.5779L255.533 36.8399L254.696 35.5926V37.5148H254.065L254.051 34.5508Z" fill="#FF4713"/>
</g>
<defs>
<clipPath id="clip0_2128_143868">
<rect width="233" height="40" fill="white" transform="translate(24 24)"/>
</clipPath>
</defs>
</svg>
