<svg width="147" height="80" viewBox="0 0 147 80" fill="none" xmlns="http://www.w3.org/2000/svg">
<path d="M26.0801 0.5H120.92C125.636 0.5 129.141 0.500663 131.913 0.738281C134.678 0.97537 136.667 1.44593 138.36 2.35938C141.022 3.79538 143.205 5.97837 144.641 8.63965C145.554 10.3326 146.025 12.3216 146.262 15.0869C146.499 17.8587 146.5 21.3643 146.5 26.0801V53.9199C146.5 58.6357 146.499 62.1413 146.262 64.9131C146.025 67.6784 145.554 69.6674 144.641 71.3604C143.205 74.0216 141.022 76.2046 138.36 77.6406C136.667 78.5541 134.678 79.0246 131.913 79.2617C129.141 79.4993 125.636 79.5 120.92 79.5H26.0801C21.3643 79.5 17.8587 79.4993 15.0869 79.2617C12.3216 79.0246 10.3326 78.5541 8.63965 77.6406C5.97837 76.2046 3.79538 74.0216 2.35938 71.3604C1.44593 69.6674 0.97537 67.6784 0.738281 64.9131C0.500663 62.1413 0.5 58.6357 0.5 53.9199V26.0801C0.5 21.3643 0.500663 17.8587 0.738281 15.0869C0.97537 12.3216 1.44593 10.3326 2.35938 8.63965C3.79538 5.97837 5.97837 3.79538 8.63965 2.35938C10.3326 1.44593 12.3216 0.97537 15.0869 0.738281C17.8587 0.500663 21.3643 0.5 26.0801 0.5Z" fill="black"/>
<path d="M26.0801 0.5H120.92C125.636 0.5 129.141 0.500663 131.913 0.738281C134.678 0.97537 136.667 1.44593 138.36 2.35938C141.022 3.79538 143.205 5.97837 144.641 8.63965C145.554 10.3326 146.025 12.3216 146.262 15.0869C146.499 17.8587 146.5 21.3643 146.5 26.0801V53.9199C146.5 58.6357 146.499 62.1413 146.262 64.9131C146.025 67.6784 145.554 69.6674 144.641 71.3604C143.205 74.0216 141.022 76.2046 138.36 77.6406C136.667 78.5541 134.678 79.0246 131.913 79.2617C129.141 79.4993 125.636 79.5 120.92 79.5H26.0801C21.3643 79.5 17.8587 79.4993 15.0869 79.2617C12.3216 79.0246 10.3326 78.5541 8.63965 77.6406C5.97837 76.2046 3.79538 74.0216 2.35938 71.3604C1.44593 69.6674 0.97537 67.6784 0.738281 64.9131C0.500663 62.1413 0.5 58.6357 0.5 53.9199V26.0801C0.5 21.3643 0.500663 17.8587 0.738281 15.0869C0.97537 12.3216 1.44593 10.3326 2.35938 8.63965C3.79538 5.97837 5.97837 3.79538 8.63965 2.35938C10.3326 1.44593 12.3216 0.97537 15.0869 0.738281C17.8587 0.500663 21.3643 0.5 26.0801 0.5Z" stroke="#373737"/>
<path fill-rule="evenodd" clip-rule="evenodd" d="M27.1837 56H44.4866L44.625 48.5551H31.8901V24H24V52.9959C24 54.6939 25.3842 56 27.1837 56ZM65.857 24.1306C64.6306 24 63.5405 24.7837 63.1318 25.8286L57 41.6327L50.1869 24H41.875L51.6858 48.6857H47.3254V56H56.8637C58.3626 56 59.589 55.0857 60.134 53.9102L72.125 24.1306H65.857ZM75.0907 24H99.625V31.4449H89.9191V56H82.3701V31.4449H72.125L75.0907 24ZM110.024 31.4449H123V24H102.375V52.9959C102.375 54.6939 103.741 56 105.517 56H123V48.6857H110.024V43.8531H123V36.4082H110.024V31.4449Z" fill="white" style="mix-blend-mode:plus-darker"/>
</svg>
