<?xml version="1.0" encoding="UTF-8"?>
<svg width="41px" height="25px" viewBox="0 0 41 25" version="1.1" xmlns="http://www.w3.org/2000/svg" xmlns:xlink="http://www.w3.org/1999/xlink">
    <!-- Generator: Sketch 53.2 (72643) - https://sketchapp.com -->
    <title>eQ</title>
    <desc>Created with Sketch.</desc>
    <g id="Page-1" stroke="none" stroke-width="1" fill="none" fill-rule="evenodd">
        <g id="dsfff/1-copy-10" transform="translate(-70.000000, -78.000000)" fill="#FFFFFF" fill-rule="nonzero">
            <g id="Group" transform="translate(-0.000000, 0.000000)">
                <path d="M73.6604004,94.6728516 C73.9227715,95.8535215 74.4979611,96.7591928 75.3859863,97.3898926 C76.2740116,98.0205923 77.3537534,98.3359375 78.6252441,98.3359375 C79.5132694,98.3359375 80.3028937,98.1593442 80.9941406,97.8061523 C81.6853876,97.4529605 82.2277812,96.9887724 82.6213379,96.4135742 L85.3762207,98.0180664 C84.6496546,99.0978244 83.7111874,99.9328584 82.560791,100.523193 C81.4103946,101.113528 80.0884678,101.408691 78.5949707,101.408691 C77.3436624,101.408691 76.1882377,101.201825 75.1286621,100.788086 C74.0690865,100.374347 73.1785518,99.8042029 72.4570312,99.0776367 C71.7355107,98.3510706 71.172935,97.4857635 70.7692871,96.4816895 C70.3656393,95.4776154 70.1638184,94.4003964 70.1638184,93.25 C70.1638184,91.7262294 70.5018684,90.346279 71.1779785,89.1101074 C71.8540887,87.8739359 72.8177835,86.8951045 74.0690918,86.173584 C75.3204001,85.4520634 76.7432375,85.0913086 78.3376465,85.0913086 C79.8412347,85.0913086 81.190912,85.4621545 82.3867188,86.2038574 C83.5825255,86.9455603 84.5033334,87.9395283 85.1491699,89.185791 C85.7950065,90.4320538 86.1179199,91.7968676 86.1179199,93.2802734 C86.1179199,93.6233741 86.0775557,94.0875622 85.9968262,94.6728516 L73.6604004,94.6728516 Z M73.630127,91.9482422 L82.7424316,91.9482422 C82.5204253,90.6868427 81.9982137,89.7357617 81.1757812,89.0949707 C80.3533488,88.4541797 79.3972222,88.1337891 78.307373,88.1337891 C77.0661559,88.1337891 76.0368693,88.4743618 75.2194824,89.1555176 C74.4020955,89.8366733 73.8723157,90.7675722 73.630127,91.9482422 Z M110.699951,90.1469727 C110.699951,91.5799225 110.450198,92.9396908 109.950684,94.2263184 C109.451169,95.5129459 108.747319,96.6557567 107.839111,97.6547852 L110.139893,100.000977 L107.627197,102.271484 L105.235596,99.8193359 C103.41918,100.878912 101.486745,101.408691 99.4382324,101.408691 C97.9144618,101.408691 96.4588286,101.116051 95.0712891,100.530762 C93.6837496,99.9454723 92.4879607,99.1508025 91.4838867,98.1467285 C90.4798127,97.1426545 89.6800974,95.9443429 89.0847168,94.5517578 C88.4893362,93.1591727 88.1916504,91.6909257 88.1916504,90.1469727 C88.1916504,88.6030196 88.4893362,87.1347726 89.0847168,85.7421875 C89.6800974,84.3496024 90.4798127,83.1538136 91.4838867,82.1547852 C92.4879607,81.1557567 93.6837496,80.3636097 95.0712891,79.7783203 C96.4588286,79.1930309 97.9144618,78.9003906 99.4382324,78.9003906 C100.972094,78.9003906 102.432773,79.1930309 103.820312,79.7783203 C105.207852,80.3636097 106.406164,81.1557567 107.415283,82.1547852 C108.424403,83.1538136 109.224118,84.3496024 109.814453,85.7421875 C110.404788,87.1347726 110.699951,88.6030196 110.699951,90.1469727 Z M99.4382324,97.9272461 C100.59872,97.9272461 101.683507,97.6901065 102.692627,97.2158203 L98.7268066,93.1591797 L101.239502,90.8886719 L105.386963,95.1420898 C106.54745,93.7192312 107.127686,92.0542088 107.127686,90.1469727 C107.127686,88.6837492 106.787113,87.3567768 106.105957,86.1660156 C105.424801,84.9752545 104.496425,84.0443556 103.320801,83.373291 C102.145176,82.7022265 100.851,82.3666992 99.4382324,82.3666992 C98.0254649,82.3666992 96.7312884,82.7022265 95.5556641,83.373291 C94.3800397,84.0443556 93.4516636,84.9752545 92.7705078,86.1660156 C92.0893521,87.3567768 91.7487793,88.6837492 91.7487793,90.1469727 C91.7487793,91.6101961 92.0893521,92.9371685 92.7705078,94.1279297 C93.4516636,95.3186908 94.3800397,96.2495897 95.5556641,96.9206543 C96.7312884,97.5917189 98.0254649,97.9272461 99.4382324,97.9272461 Z" id="eQ"></path>
            </g>
        </g>
    </g>
</svg>