<?xml version="1.0" encoding="UTF-8"?>
<svg width="82px" height="82px" viewBox="0 0 82 82" version="1.1" xmlns="http://www.w3.org/2000/svg" xmlns:xlink="http://www.w3.org/1999/xlink">
    <!-- Generator: Sketch 54.1 (76490) - https://sketchapp.com -->
    <title>Combined Shape</title>
    <desc>Created with Sketch.</desc>
    <g id="Symbols" stroke="none" stroke-width="1" fill="none" fill-rule="evenodd">
        <g id="Icon/Step-2-Copy-2" transform="translate(-49.000000, -49.000000)" fill="#C4C4C4">
            <path d="M128,93 C126.343146,93 125,91.6568542 125,90 C125,88.3431458 126.343146,87 128,87 C129.656854,87 131,88.3431458 131,90 C131,91.6568542 129.656854,93 128,93 Z M52,93 C50.3431458,93 49,91.6568542 49,90 C49,88.3431458 50.3431458,87 52,87 C53.6568542,87 55,88.3431458 55,90 C55,91.6568542 53.6568542,93 52,93 Z M87,128 C87,126.343146 88.3431458,125 90,125 C91.6568542,125 93,126.343146 93,128 C93,129.656854 91.6568542,131 90,131 C88.3431458,131 87,129.656854 87,128 Z M87,52 C87,50.3431458 88.3431458,49 90,49 C91.6568542,49 93,50.3431458 93,52 C93,53.6568542 91.6568542,55 90,55 C88.3431458,55 87,53.6568542 87,52 Z M121.408965,111.598076 C119.974087,110.769649 119.482462,108.934878 120.310889,107.5 C121.139316,106.065122 122.974087,105.573497 124.408965,106.401924 C125.843843,107.230351 126.335469,109.065122 125.507042,110.5 C124.678614,111.934878 122.843843,112.426503 121.408965,111.598076 Z M55.5910347,73.5980762 C54.1561568,72.7696491 53.6645313,70.9348779 54.4929584,69.5 C55.3213856,68.0651221 57.1561568,67.5734967 58.5910347,68.4019238 C60.0259125,69.2303509 60.517538,71.0651221 59.6891109,72.5 C58.8606837,73.9348779 57.0259125,74.4265033 55.5910347,73.5980762 Z M68.4019238,121.408965 C69.2303509,119.974087 71.0651221,119.482462 72.5,120.310889 C73.9348779,121.139316 74.4265033,122.974087 73.5980762,124.408965 C72.7696491,125.843843 70.9348779,126.335469 69.5,125.507042 C68.0651221,124.678614 67.5734967,122.843843 68.4019238,121.408965 Z M106.401924,55.5910347 C107.230351,54.1561568 109.065122,53.6645313 110.5,54.4929584 C111.934878,55.3213856 112.426503,57.1561568 111.598076,58.5910347 C110.769649,60.0259125 108.934878,60.517538 107.5,59.6891109 C106.065122,58.8606837 105.573497,57.0259125 106.401924,55.5910347 Z M106.401924,124.408965 C105.573497,122.974087 106.065122,121.139316 107.5,120.310889 C108.934878,119.482462 110.769649,119.974087 111.598076,121.408965 C112.426503,122.843843 111.934878,124.678614 110.5,125.507042 C109.065122,126.335469 107.230351,125.843843 106.401924,124.408965 Z M68.4019238,58.5910347 C67.5734967,57.1561568 68.0651221,55.3213856 69.5,54.4929584 C70.9348779,53.6645313 72.7696491,54.1561568 73.5980762,55.5910347 C74.4265033,57.0259125 73.9348779,58.8606837 72.5,59.6891109 C71.0651221,60.517538 69.2303509,60.0259125 68.4019238,58.5910347 Z M55.5910347,106.401924 C57.0259125,105.573497 58.8606837,106.065122 59.6891109,107.5 C60.517538,108.934878 60.0259125,110.769649 58.5910347,111.598076 C57.1561568,112.426503 55.3213856,111.934878 54.4929584,110.5 C53.6645313,109.065122 54.1561568,107.230351 55.5910347,106.401924 Z M121.408965,68.4019238 C122.843843,67.5734967 124.678614,68.0651221 125.507042,69.5 C126.335469,70.9348779 125.843843,72.7696491 124.408965,73.5980762 C122.974087,74.4265033 121.139316,73.9348779 120.310889,72.5 C119.482462,71.0651221 119.974087,69.2303509 121.408965,68.4019238 Z" id="Combined-Shape"></path>
        </g>
    </g>
</svg>