<?xml version="1.0" encoding="UTF-8"?>
<svg width="32px" height="32px" viewBox="0 0 32 32" version="1.1" xmlns="http://www.w3.org/2000/svg" xmlns:xlink="http://www.w3.org/1999/xlink">
    <!-- Generator: Sketch 54.1 (76490) - https://sketchapp.com -->
    <title>Combined Shape</title>
    <desc>Created with Sketch.</desc>
    <g id="Symbols" stroke="none" stroke-width="1" fill="none" fill-rule="evenodd">
        <g id="Icon/Step-2-Copy-2" transform="translate(-74.000000, -74.000000)" fill="#F8F8F8">
            <path d="M88,95.6585886 C86.2951731,95.0560187 84.9439813,93.7048269 84.3414114,92 L78.1659169,92 C79.0089538,97.0250097 82.9749903,100.991046 88,101.834083 L88,95.6585886 Z M84.3414114,88 C84.9439813,86.2951731 86.2951731,84.9439813 88,84.3414114 L88,78.1659169 C82.9749903,79.0089538 79.0089538,82.9749903 78.1659169,88 L84.3414114,88 Z M92,84.3414114 C93.7048269,84.9439813 95.0560187,86.2951731 95.6585886,88 L101.834083,88 C100.991046,82.9749903 97.0250097,79.0089538 92,78.1659169 L92,84.3414114 Z M95.6585886,92 C95.0560187,93.7048269 93.7048269,95.0560187 92,95.6585886 L92,101.834083 C97.0250097,100.991046 100.991046,97.0250097 101.834083,92 L95.6585886,92 Z M90,106 C81.163444,106 74,98.836556 74,90 C74,81.163444 81.163444,74 90,74 C98.836556,74 106,81.163444 106,90 C106,98.836556 98.836556,106 90,106 Z" id="Combined-Shape" transform="translate(90.000000, 90.000000) rotate(-315.000000) translate(-90.000000, -90.000000) "></path>
        </g>
    </g>
</svg>