<svg width="42" height="21" viewBox="0 0 42 21" fill="none" xmlns="http://www.w3.org/2000/svg">
<path fill-rule="evenodd" clip-rule="evenodd" d="M10.8583 0.368128C10.3697 -0.122709 9.57516 -0.122709 9.08655 0.368128L0.364232 9.13018C-0.121248 9.61787 -0.121248 10.4062 0.364232 10.8939L9.08655 19.656C9.57516 20.1468 10.3697 20.1468 10.8583 19.656L19.5806 10.8939C20.0661 10.4062 20.0661 9.61787 19.5806 9.13018L10.8583 0.368128ZM9.54607 6.57721L8.99296 8.23654C8.8739 8.59371 8.59363 8.87398 8.23645 8.99304L6.57712 9.54615C6.14092 9.69155 6.14092 10.3086 6.57713 10.454L8.23645 11.0071C8.59363 11.1261 8.8739 11.4064 8.99296 11.7636L9.54607 13.4229C9.69147 13.8591 10.3085 13.8591 10.4539 13.4229L11.007 11.7636C11.126 11.4064 11.4063 11.1261 11.7635 11.0071L13.4228 10.454C13.859 10.3086 13.859 9.69155 13.4228 9.54615L11.7635 8.99304C11.4063 8.87398 11.126 8.59371 11.007 8.23654L10.4539 6.57721C10.3085 6.141 9.69147 6.141 9.54607 6.57721Z" fill="black"/>
<path fill-rule="evenodd" clip-rule="evenodd" d="M31.0864 0.368128C31.575 -0.122709 32.3696 -0.122709 32.8582 0.368128L41.5805 9.13018C42.066 9.61787 42.066 10.4062 41.5805 10.8939L32.8582 19.656C32.3696 20.1468 31.575 20.1468 31.0864 19.656L22.3641 10.8939C21.8786 10.4062 21.8786 9.61787 22.3641 9.13018L31.0864 0.368128ZM24.9401 10.4414L31.5373 17.0575C31.7811 17.3019 32.1768 17.3025 32.4212 17.0587L39.0562 10.4426C39.3011 10.1984 39.3011 9.8017 39.0562 9.55748L32.4212 2.94137C32.1768 2.69764 31.7811 2.6982 31.5373 2.94263L24.9401 9.55874C24.6968 9.80267 24.6968 10.1974 24.9401 10.4414ZM31.3851 15.6351L26.1919 10.4419C25.9479 10.1979 25.9479 9.80214 26.1919 9.55806L31.3851 4.36495C31.851 3.89901 32.6276 4.37804 32.4203 5.00352L30.8294 9.80337C30.7871 9.93104 30.7871 10.069 30.8294 10.1966L32.4203 14.9965C32.6276 15.622 31.851 16.101 31.3851 15.6351Z" fill="black"/>
</svg>
