<svg width="42" height="21" viewBox="0 0 42 21" fill="none" xmlns="http://www.w3.org/2000/svg">
<path fill-rule="evenodd" clip-rule="evenodd" d="M9.08642 0.368128C9.57504 -0.122709 10.3696 -0.122709 10.8582 0.368128L19.5805 9.13018C20.066 9.61787 20.066 10.4062 19.5805 10.8939L10.8582 19.656C10.3696 20.1468 9.57504 20.1468 9.08642 19.656L0.36411 10.8939C-0.12137 10.4062 -0.12137 9.61787 0.36411 9.13018L9.08642 0.368128ZM2.94006 10.4414L9.53734 17.0575C9.78107 17.3019 10.1768 17.3025 10.4212 17.0587L17.0562 10.4426C17.3011 10.1984 17.3011 9.8017 17.0562 9.55748L10.4212 2.94137C10.1768 2.69764 9.78107 2.6982 9.53734 2.94263L2.94006 9.55874C2.69682 9.80267 2.69682 10.1974 2.94006 10.4414ZM9.38505 15.6351L4.19194 10.4419C3.94786 10.1979 3.94786 9.80214 4.19194 9.55806L9.38505 4.36495C9.85099 3.89901 10.6276 4.37804 10.4203 5.00352L8.82944 9.80337C8.78713 9.93104 8.78713 10.069 8.82944 10.1966L10.4203 14.9965C10.6276 15.622 9.85099 16.101 9.38505 15.6351Z" fill="black"/>
<path fill-rule="evenodd" clip-rule="evenodd" d="M32.8582 0.368128C32.3696 -0.122709 31.575 -0.122709 31.0864 0.368128L22.3641 9.13018C21.8786 9.61787 21.8786 10.4062 22.3641 10.8939L31.0864 19.656C31.575 20.1468 32.3696 20.1468 32.8582 19.656L41.5805 10.8939C42.066 10.4062 42.066 9.61787 41.5805 9.13018L32.8582 0.368128ZM31.5372 17.0575L24.9399 10.4414C24.6967 10.1974 24.6967 9.80267 24.9399 9.55874L31.5372 2.94263C31.7809 2.6982 32.1766 2.69764 32.4211 2.94137L39.056 9.55748C39.3009 9.8017 39.3009 10.1984 39.056 10.4426L32.4211 17.0587C32.1766 17.3025 31.7809 17.3019 31.5372 17.0575Z" fill="black"/>
</svg>
