<svg width="24" height="24" viewBox="0 0 24 24" fill="none" xmlns="http://www.w3.org/2000/svg">
<path d="M3 5V4C2.73478 4 2.48043 4.10536 2.29289 4.29289C2.10536 4.48043 2 4.73478 2 5H3ZM21 5H22C22 4.73478 21.8946 4.48043 21.7071 4.29289C21.5196 4.10536 21.2652 4 21 4V5ZM3 6H21V4H3V6ZM20 5V17H22V5H20ZM19 18H5V20H19V18ZM4 17V5H2V17H4ZM5 18C4.73478 18 4.48043 17.8946 4.29289 17.7071C4.10536 17.5196 4 17.2652 4 17H2C2 17.7956 2.31607 18.5587 2.87868 19.1213C3.44129 19.6839 4.20435 20 5 20V18ZM20 17C20 17.2652 19.8946 17.5196 19.7071 17.7071C19.5196 17.8946 19.2652 18 19 18V20C19.7956 20 20.5587 19.6839 21.1213 19.1213C21.6839 18.5587 22 17.7956 22 17H20Z" fill="#E1E1E5"/>
<path fill-rule="evenodd" clip-rule="evenodd" d="M21.9581 17.5C21.9858 17.3359 22 17.1687 22 17V5C22 4.73478 21.8946 4.48043 21.7071 4.29289C21.5196 4.10536 21.2652 4 21 4H3C2.73478 4 2.48043 4.10536 2.29289 4.29289C2.10536 4.48043 2 4.73478 2 5V17C2 17.1687 2.0142 17.3359 2.04195 17.5C2.14508 18.1102 2.43533 18.678 2.87868 19.1213C3.32203 19.5647 3.88985 19.8549 4.5 19.9581C4.66414 19.9858 4.83134 20 5 20H19C19.1687 20 19.3359 19.9858 19.5 19.9581C20.1102 19.8549 20.678 19.5647 21.1213 19.1213C21.5647 18.678 21.8549 18.1102 21.9581 17.5ZM19 18C19.2652 18 19.5196 17.8946 19.7071 17.7071C19.8946 17.5196 20 17.2652 20 17V6H4V17C4 17.2652 4.10536 17.5196 4.29289 17.7071C4.48043 17.8946 4.73478 18 5 18H19Z" fill="#E1E1E5"/>
<path d="M3 5L12 14L21 5" fill="#E1E1E5"/>
<path fill-rule="evenodd" clip-rule="evenodd" d="M2.29289 4.29289C2.68342 3.90237 3.31658 3.90237 3.70711 4.29289L12 12.5858L20.2929 4.29289C20.6834 3.90237 21.3166 3.90237 21.7071 4.29289C22.0976 4.68342 22.0976 5.31658 21.7071 5.70711L12.7071 14.7071C12.3166 15.0976 11.6834 15.0976 11.2929 14.7071L2.29289 5.70711C1.90237 5.31658 1.90237 4.68342 2.29289 4.29289Z" fill="#E1E1E5"/>
</svg>
