<svg width="24" height="24" viewBox="0 0 24 24" fill="none" xmlns="http://www.w3.org/2000/svg">
<path fill-rule="evenodd" clip-rule="evenodd" d="M6 2H14L20 8V20C20 20.5304 19.7893 21.0391 19.4142 21.4142C19.0391 21.7893 18.5304 22 18 22H6C5.46957 22 4.96086 21.7893 4.58579 21.4142C4.21071 21.0391 4 20.5304 4 20V4C4 3.46957 4.21071 2.96086 4.58579 2.58579C4.96086 2.21071 5.46957 2 6 2ZM13 4V9H18L13 4Z" fill="#E1E1E5"/>
<path d="M15.3867 17.7008V13H18.4992V13.8194H16.3806V14.9396H18.2926V15.759H16.3806V17.7008H15.3867Z" fill="black"/>
<path d="M12.35 17.7008H10.6836V13H12.3638C12.8366 13 13.2437 13.0941 13.5849 13.2823C13.9261 13.469 14.1886 13.7376 14.3722 14.088C14.5574 14.4384 14.6499 14.8577 14.6499 15.3458C14.6499 15.8355 14.5574 16.2563 14.3722 16.6083C14.1886 16.9602 13.9246 17.2303 13.5803 17.4185C13.2375 17.6067 12.8274 17.7008 12.35 17.7008ZM11.6775 16.8493H12.3087C12.6025 16.8493 12.8496 16.7972 13.0501 16.6932C13.2521 16.5876 13.4036 16.4246 13.5046 16.2043C13.6071 15.9824 13.6583 15.6963 13.6583 15.3458C13.6583 14.9985 13.6071 14.7146 13.5046 14.4943C13.4036 14.2739 13.2528 14.1117 13.0524 14.0077C12.8519 13.9036 12.6048 13.8516 12.311 13.8516H11.6775V16.8493Z" fill="black"/>
<path d="M6.5 17.7008V13H8.35463C8.71117 13 9.01492 13.0681 9.26588 13.2043C9.51683 13.3389 9.70811 13.5264 9.83971 13.7666C9.97284 14.0054 10.0394 14.2808 10.0394 14.593C10.0394 14.9051 9.97207 15.1806 9.83741 15.4193C9.70275 15.658 9.50765 15.8439 9.2521 15.977C8.99809 16.1102 8.69051 16.1767 8.32938 16.1767H7.14728V15.3803H8.16871C8.35998 15.3803 8.5176 15.3474 8.64155 15.2816C8.76702 15.2142 8.86037 15.1217 8.92158 15.0038C8.98432 14.8845 9.01568 14.7475 9.01568 14.593C9.01568 14.4369 8.98432 14.3007 8.92158 14.1844C8.86037 14.0666 8.76702 13.9755 8.64155 13.9112C8.51607 13.8454 8.35692 13.8125 8.16412 13.8125H7.49388V17.7008H6.5Z" fill="black"/>
</svg>
