<svg width="24" height="24" viewBox="0 0 24 24" fill="none" xmlns="http://www.w3.org/2000/svg">
<rect x="2" y="2" width="20" height="20" rx="2" fill="#0A66C2"/>
<path d="M16.4112 19H18.6877C18.7702 19 18.8493 18.9672 18.9077 18.9087C18.966 18.8503 18.9988 18.7711 18.9988 18.6884L19 13.8701C19 11.3516 18.4583 9.41586 15.5204 9.41586C14.4036 9.37426 13.3504 9.95098 12.7821 10.914C12.7793 10.9187 12.775 10.9223 12.77 10.9244C12.765 10.9264 12.7594 10.9267 12.7542 10.9253C12.7489 10.9239 12.7443 10.9208 12.741 10.9165C12.7376 10.9122 12.7358 10.9069 12.7358 10.9014V9.96001C12.7358 9.87736 12.703 9.79809 12.6447 9.73964C12.5863 9.68119 12.5072 9.64836 12.4247 9.64836H10.2642C10.1817 9.64836 10.1026 9.68119 10.0442 9.73964C9.9859 9.79809 9.95312 9.87736 9.95312 9.96001V18.688C9.95312 18.7706 9.9859 18.8499 10.0442 18.9083C10.1026 18.9668 10.1817 18.9996 10.2642 18.9996H12.5406C12.6231 18.9996 12.7023 18.9668 12.7606 18.9083C12.819 18.8499 12.8517 18.7706 12.8517 18.688V14.3736C12.8517 13.1537 13.0827 11.9723 14.5925 11.9723C16.0808 11.9723 16.1001 13.3682 16.1001 14.4526V18.6883C16.1001 18.771 16.1328 18.8503 16.1912 18.9087C16.2495 18.9672 16.3287 19 16.4112 19ZM5 6.68513C5 7.6095 5.75966 8.3701 6.68249 8.3701C7.60509 8.37002 8.36428 7.60895 8.36428 6.68474C8.36412 5.76052 7.60486 5 6.68218 5C5.75927 5 5 5.76075 5 6.68513ZM5.54126 19H7.82069C7.9032 19 7.98233 18.9672 8.04068 18.9087C8.09902 18.8503 8.1318 18.771 8.1318 18.6883V9.96001C8.1318 9.87736 8.09902 9.79809 8.04068 9.73964C7.98233 9.68119 7.9032 9.64836 7.82069 9.64836H5.54126C5.45874 9.64836 5.37961 9.68119 5.32127 9.73964C5.26292 9.79809 5.23014 9.87736 5.23014 9.96001V18.6883C5.23014 18.771 5.26292 18.8503 5.32127 18.9087C5.37961 18.9672 5.45874 19 5.54126 19Z" fill="white"/>
</svg>
