<svg width="40" height="40" viewBox="0 0 40 40" fill="none" xmlns="http://www.w3.org/2000/svg">
<path fill-rule="evenodd" clip-rule="evenodd" d="M21 34C28.732 34 35 27.732 35 20C35 12.268 28.732 6 21 6C13.268 6 7 12.268 7 20C7 27.732 13.268 34 21 34ZM21 36C29.8366 36 37 28.8366 37 20C37 11.1634 29.8366 4 21 4C12.1634 4 5 11.1634 5 20C5 28.8366 12.1634 36 21 36Z" fill="white"/>
<path fill-rule="evenodd" clip-rule="evenodd" d="M30.7608 19.1374C33.3179 17.9441 34 16.6944 34 16C34 15.3056 33.3179 14.0559 30.7608 12.8626C28.3661 11.7451 24.9173 11 21 11C17.0827 11 13.6339 11.7451 11.2392 12.8626C8.68207 14.0559 8 15.3056 8 16C8 16.6944 8.68207 17.9441 11.2392 19.1374C13.6339 20.2549 17.0827 21 21 21C24.9173 21 28.3661 20.2549 30.7608 19.1374ZM21 23C29.2843 23 36 19.866 36 16C36 12.134 29.2843 9 21 9C12.7157 9 6 12.134 6 16C6 19.866 12.7157 23 21 23Z" fill="white"/>
<path fill-rule="evenodd" clip-rule="evenodd" d="M30.7608 27.1374C33.3179 25.9441 34 24.6944 34 24C34 23.3056 33.3179 22.0559 30.7608 20.8626C28.3661 19.7451 24.9173 19 21 19C17.0827 19 13.6339 19.7451 11.2392 20.8626C8.68207 22.0559 8 23.3056 8 24C8 24.6944 8.68207 25.9441 11.2392 27.1374C13.6339 28.2549 17.0827 29 21 29C24.9173 29 28.3661 28.2549 30.7608 27.1374ZM21 31C29.2843 31 36 27.866 36 24C36 20.134 29.2843 17 21 17C12.7157 17 6 20.134 6 24C6 27.866 12.7157 31 21 31Z" fill="white"/>
<path d="M20 5H22V35H20V5Z" fill="white"/>
</svg>
