<svg width="40" height="40" viewBox="0 0 40 40" fill="none" xmlns="http://www.w3.org/2000/svg">
<path fill-rule="evenodd" clip-rule="evenodd" d="M34 20C34 27.732 27.732 34 20 34C12.268 34 6 27.732 6 20C6 12.268 12.268 6 20 6C27.732 6 34 12.268 34 20ZM32.25 20C32.25 20.1383 32.2477 20.276 32.2432 20.4132C31.998 20.1179 31.7052 19.8336 31.3691 19.5625C31.681 19.3109 31.9557 19.0479 32.1895 18.7753C32.2295 19.1781 32.25 19.5867 32.25 20ZM20.875 28.7366C24.8161 28.6155 28.282 27.6827 30.5122 26.293C28.5123 29.6265 24.9717 31.9301 20.875 32.2192V28.7366ZM20.875 26.9857C23.9399 26.8854 26.6256 26.2639 28.5407 25.3702C30.7782 24.3261 31.375 23.2326 31.375 22.625C31.375 22.1521 31.0134 21.3848 29.798 20.5755C27.5757 21.7382 24.4173 22.5028 20.875 22.6116V26.9857ZM19.125 22.6116V26.9857C16.0601 26.8854 13.3744 26.2639 11.4593 25.3702C9.22181 24.3261 8.625 23.2326 8.625 22.625C8.625 22.1521 8.98659 21.3848 10.202 20.5755C12.4243 21.7382 15.5827 22.5028 19.125 22.6116ZM19.125 20.8607C16.4375 20.7728 14.0415 20.2841 12.201 19.5625C14.0415 18.8409 16.4375 18.3522 19.125 18.2643V20.8607ZM20.875 20.8607V18.2643C23.5625 18.3522 25.9585 18.8409 27.799 19.5625C25.9585 20.2841 23.5625 20.7728 20.875 20.8607ZM20.875 16.5134C24.4173 16.6222 27.5757 17.3868 29.798 18.5495C31.0134 17.7402 31.375 16.9729 31.375 16.5C31.375 15.8924 30.7782 14.7989 28.5407 13.7548C26.6256 12.8611 23.9399 12.2396 20.875 12.1393V16.5134ZM19.125 16.5134V12.1393C16.0601 12.2396 13.3744 12.8611 11.4593 13.7548C9.22181 14.7989 8.625 15.8924 8.625 16.5C8.625 16.9729 8.98658 17.7402 10.202 18.5495C12.4243 17.3868 15.5827 16.6222 19.125 16.5134ZM20.875 10.3884C24.2675 10.4926 27.3079 11.1983 29.5111 12.2792C27.4372 9.72747 24.357 8.02651 20.875 7.78077V10.3884ZM19.125 7.78077V10.3884C15.7325 10.4926 12.6921 11.1983 10.4889 12.2792C12.5628 9.72747 15.643 8.02651 19.125 7.78077ZM19.125 28.7366V32.2192C15.0283 31.9301 11.4877 29.6265 9.48782 26.293C11.718 27.6827 15.1839 28.6155 19.125 28.7366ZM7.75 20C7.75 20.1383 7.75229 20.276 7.75684 20.4132C8.002 20.1179 8.29482 19.8336 8.6309 19.5625C8.31898 19.3109 8.04433 19.0479 7.81045 18.7753C7.77047 19.1781 7.75 19.5867 7.75 20Z" fill="#E1E1E5"/>
</svg>
