<svg width="202" height="60" viewBox="0 0 202 60" fill="none" xmlns="http://www.w3.org/2000/svg">
<rect width="201.632" height="60" rx="18" fill="white"/>
<path d="M53.7941 25.4265V20.2795C53.7941 17.1515 52.5515 14.1516 50.3397 11.9398C48.1279 9.72794 45.128 8.48535 42 8.48535C38.872 8.48535 35.8721 9.72794 33.6603 11.9398C31.4485 14.1516 30.2059 17.1515 30.2059 20.2795V25.4265H26H25.5V25.9265V48.5148V49.0148H26H58H58.5V48.5148V25.9265V25.4265H58H53.7941ZM36.3529 34.8383H35.8529V35.3383V39.103V39.603H36.3529H47.6471H48.1471V39.103V35.3383V34.8383H47.6471H36.3529ZM42 13.2501C43.8643 13.2501 45.6523 13.9907 46.9705 15.3089C48.2888 16.6272 49.0294 18.4152 49.0294 20.2795V25.4265H34.9706V20.2795C34.9706 18.4152 35.7112 16.6272 37.0295 15.3089C38.3477 13.9907 40.1357 13.2501 42 13.2501ZM30.2647 30.1912H53.7353V44.2501H30.2647V30.1912Z" fill="black" stroke="black"/>
<path d="M154.079 45.1896H146.91L157.194 14.8086H167.434L177.633 45.1896H170.464L168.587 39.7705H155.956L154.079 45.1896ZM162.101 20.8677L157.492 34.5648H167.05L162.527 20.8677H162.101Z" fill="black"/>
<path d="M128.438 45.1896H117.045V14.8086H128.438C138.935 14.8086 145.933 20.8677 145.933 29.9991C145.933 39.1305 138.935 45.1896 128.438 45.1896ZM123.957 20.3557V39.6425H128.438C134.668 39.6425 138.892 35.9302 138.892 29.9991C138.892 24.1107 134.668 20.3557 128.438 20.3557H123.957Z" fill="black"/>
<path d="M90.7419 45.1896H84V14.8086H92.1926L103.714 36.0156H104.14V14.8086H110.882V45.1896H102.689L91.1686 24.0253H90.7419V45.1896Z" fill="black"/>
</svg>
