<?xml version="1.0" encoding="UTF-8"?>
<svg width="56px" height="56px" viewBox="0 0 56 56" version="1.1" xmlns="http://www.w3.org/2000/svg" xmlns:xlink="http://www.w3.org/1999/xlink">
    <!-- Generator: Sketch 53.2 (72643) - https://sketchapp.com -->
    <title>Path</title>
    <desc>Created with Sketch.</desc>
    <defs>
        <path d="M11.3137085,0 L44.6862915,1.77635684e-15 C46.8080234,1.38660101e-15 48.8428547,0.842854723 50.3431458,2.34314575 L53.6568542,5.65685425 C55.1571453,7.15714528 56,9.19197658 56,11.3137085 L56,44.6862915 C56,46.8080234 55.1571453,48.8428547 53.6568542,50.3431458 L50.3431458,53.6568542 C48.8428547,55.1571453 46.8080234,56 44.6862915,56 L11.3137085,56 C9.19197658,56 7.15714528,55.1571453 5.65685425,53.6568542 L2.34314575,50.3431458 C0.842854723,48.8428547 5.58890774e-15,46.8080234 5.32907052e-15,44.6862915 L3.55271368e-15,11.3137085 C3.29287646e-15,9.19197658 0.842854723,7.15714528 2.34314575,5.65685425 L5.65685425,2.34314575 C7.15714528,0.842854723 9.19197658,2.16611267e-15 11.3137085,1.77635684e-15 Z" id="path-1"></path>
    </defs>
    <g id="Page-1" stroke="none" stroke-width="1" fill="none" fill-rule="evenodd">
        <g id="dsfff/1-copy-10" transform="translate(-62.000000, -62.000000)">
            <g id="Group" transform="translate(-0.000000, 0.000000)">
                <g id="Rectangle" transform="translate(62.000000, 62.000000)">
                    <mask id="mask-2" fill="white">
                        <use xlink:href="#path-1"></use>
                    </mask>
                    <use id="Path" fill="#0091FA" fill-rule="nonzero" xlink:href="#path-1"></use>
                </g>
            </g>
        </g>
    </g>
</svg>