<?xml version="1.0" encoding="UTF-8"?>
<svg width="80px" height="65px" viewBox="0 0 80 65" version="1.1" xmlns="http://www.w3.org/2000/svg" xmlns:xlink="http://www.w3.org/1999/xlink">
    <!-- Generator: Sketch 53.2 (72643) - https://sketchapp.com -->
    <title>Group 3</title>
    <desc>Created with Sketch.</desc>
    <g id="Page-1" stroke="none" stroke-width="1" fill="none" fill-rule="evenodd">
        <g id="dsfff/1-copy-18" transform="translate(-50.000000, -64.000000)" fill-rule="nonzero">
            <g id="Group" transform="translate(50.000000, 51.000000)">
                <g id="Group-3" transform="translate(0.000000, 13.000000)">
                    <path d="M8,0 L72,0 C73.500291,0 74.939134,0.59598829 76,1.65685425 L78.3431458,4 C79.4040117,5.06086596 80,6.49970897 80,8 L80,28 L0,28 L0,8 C0,6.49970897 0.59598829,5.06086596 1.65685425,4 L4,1.65685425 C5.06086596,0.59598829 6.49970897,0 8,0 Z" id="Combined-Shape" fill="#003669"></path>
                    <path d="M72,65 L8,65 C6.49970897,65 5.06086596,64.4040117 4,63.3431458 L1.65685425,61 C0.59598829,59.939134 -3.55271368e-14,58.500291 -3.55271368e-14,57 L2.20268248e-13,28 L80,28 L80,57 C80,58.500291 79.4040117,59.939134 78.3431458,61 L76,63.3431458 C74.939134,64.4040117 73.500291,65 72,65 Z" id="Combined-Shape" fill="#004D94"></path>
                </g>
            </g>
        </g>
    </g>
</svg>