<?xml version="1.0" encoding="UTF-8"?>
<svg width="20px" height="20px" viewBox="0 0 20 20" version="1.1" xmlns="http://www.w3.org/2000/svg" xmlns:xlink="http://www.w3.org/1999/xlink">
    <!-- Generator: Sketch 53.2 (72643) - https://sketchapp.com -->
    <title>Combined Shape</title>
    <desc>Created with Sketch.</desc>
    <g id="Page-1" stroke="none" stroke-width="1" fill="none" fill-rule="evenodd">
        <g id="dsfff/1-copy-18" transform="translate(-21.000000, -52.000000)" fill="#0091FA" fill-rule="nonzero">
            <g id="Group-4" transform="translate(21.000000, 28.000000)">
                <path d="M8,26 L10,24 L12,26 L12,30 L10,32 L8,30 L8,26 Z M8,38 L10,36 L12,38 L12,42 L10,44 L8,42 L8,38 Z M18,32 L20,34 L18,36 L14,36 L12,34 L14,32 L18,32 Z M6,32 L8,34 L6,36 L2,36 L5.5067062e-14,34 L2,32 L6,32 Z" id="Combined-Shape"></path>
            </g>
        </g>
    </g>
</svg>