<?xml version="1.0" encoding="UTF-8"?>
<svg width="60px" height="69px" viewBox="0 0 60 69" version="1.1" xmlns="http://www.w3.org/2000/svg" xmlns:xlink="http://www.w3.org/1999/xlink">
    <!-- Generator: Sketch 53.2 (72643) - https://sketchapp.com -->
    <title>Group 5</title>
    <desc>Created with Sketch.</desc>
    <g id="Page-1" stroke="none" stroke-width="1" fill="none" fill-rule="evenodd">
        <g id="dsfff/1-copy-30" transform="translate(-60.000000, -51.000000)" fill-rule="nonzero">
            <g id="Group" transform="translate(50.000000, 51.000000)">
                <g id="Group-2" transform="translate(10.000000, 0.000000)">
                    <g id="Group-5" transform="translate(-0.000000, 0.000000)">
                        <path d="M52,0 C53.500291,0 54.939134,0.521489754 56,1.44974747 L58.3431458,3.5 C59.4040117,4.42825771 60,5.68724535 60,7 L60,48 L0,48 L0,7 C0,5.68724535 0.59598829,4.42825771 1.65685425,3.5 L4,1.44974747 C5.06086596,0.521489754 6.49970897,0 8,0 L52,0 Z" id="Combined-Shape" fill="#0091FA"></path>
                        <polygon id="1" fill="#FFFFFF" points="25 15 25 11 33 11 33 29 29 29 29 15"></polygon>
                        <path d="M33.4737341,37.3029914 C34.8701491,38.1772875 36.0493603,39.5059429 37,41.2742715 L35.5052055,42 C34.13171,39.4450978 32.3150748,38.0426232 30,37.721134 C27.6849252,38.0426232 25.86829,39.4450978 24.4947945,42 L23,41.2742715 C23.9506397,39.5059429 25.1298509,38.1772875 26.5262659,37.3029914 C24.8801246,36.8480034 23.1805004,35.9577674 21.6437126,34.7110773 C19.7095047,36.3401553 17.8060358,37.0998857 15.9333059,36.9902685 C13.8685408,36.8694109 11.8688651,35.5437596 9.9342789,33.0133146 C12.8295313,31.2720388 15.2173308,30.5254954 17.0976773,30.7736845 C17.5305449,30.8308192 17.9545973,30.9350178 18.3698346,31.0862803 C17.7296105,30.1165577 17.1843286,29.067696 16.7429062,27.9461351 C14.0511821,28.5808415 11.8762326,28.3957701 10.2180576,27.3909208 C8.47383773,26.3339286 7.40117271,24.2531894 7.00006254,21.1487031 C10.4206085,20.9596639 12.8898646,21.4068406 14.4078308,22.4902332 C14.8698407,22.8199757 15.2764044,23.2145723 15.6275222,23.674023 C15.5014236,22.790792 15.4294182,21.8767862 15.4144053,20.9340995 C13.6218868,19.5265777 12.6120521,18.0002435 12.384901,16.3550971 C12.1157685,14.4058999 13.1035402,12.2875342 15.348216,10 C17.6992911,12.3686098 18.9260375,14.4536431 19.0284553,16.2550998 C19.1185534,17.839863 18.4741655,19.4356815 17.0952915,21.0425554 C17.1975875,25.6878061 18.7828298,29.5221622 21.429453,32.2945415 C23.6998794,34.6728489 26.6176041,36.0540092 28.9285278,36.0540092 C29.2942597,36.0540092 29.651449,36.0733876 30,36.1120208 C30.348551,36.0733876 30.7057403,36.0540092 31.0714722,36.0540092 C33.3823959,36.0540092 36.3001206,34.6728489 38.570547,32.2945415 C41.2171702,29.5221622 42.8024125,25.6878061 42.9047085,21.0425554 C41.5258345,19.4356815 40.8814466,17.839863 40.9715447,16.2550998 C41.0739625,14.4536431 42.3007089,12.3686098 44.651784,10 C46.8964598,12.2875342 47.8842315,14.4058999 47.615099,16.3550971 C47.3879479,18.0002435 46.3781132,19.5265777 44.5855947,20.9340995 C44.5705818,21.8767862 44.4985764,22.790792 44.3724778,23.674023 C44.7235956,23.2145723 45.1301593,22.8199757 45.5921692,22.4902332 C47.1101354,21.4068406 49.5793915,20.9596639 52.9999375,21.1487031 C52.5988273,24.2531894 51.5261623,26.3339286 49.7819424,27.3909208 C48.1237674,28.3957701 45.9488179,28.5808415 43.2570938,27.9461351 C42.8156714,29.067696 42.2703895,30.1165577 41.6301654,31.0862803 C42.0454027,30.9350178 42.4694551,30.8308192 42.9023227,30.7736845 C44.7826692,30.5254954 47.1704686,31.2720388 50.0657211,33.0133146 C48.1311349,35.5437596 46.1314592,36.8694109 44.0666941,36.9902685 C42.1939642,37.0998857 40.2904953,36.3401553 38.3562874,34.7110773 C36.8194996,35.9577674 35.1198754,36.8480034 33.4737341,37.3029914 Z" id="Combined-Shape" fill="#FFFFFF"></path>
                        <path d="M-3.55271368e-15,61 L-3.55271368e-15,41 L6.41421356,47.4142136 C6.78928632,47.7892863 7.29799415,48 7.82842712,48 L52.1715729,48 C52.7020059,48 53.2107137,47.7892863 53.5857864,47.4142136 L60,41 L60,61 C60,62.500291 59.4040117,63.939134 58.3431458,65 L56,67.3431458 C54.939134,68.4040117 53.500291,69 52,69 L8,69 C6.49970897,69 5.06086596,68.4040117 4,67.3431458 L1.65685425,65 C0.59598829,63.939134 0,62.500291 0,61 Z" id="Combined-Shape" fill="#66BFFF"></path>
                        <path d="M22,48 L38,48 L36.9116963,51.2649111 C36.3672401,52.8982796 34.8386848,54 33.1169631,54 L26.8830369,54 C25.1613152,54 23.6327599,52.8982796 23.0883037,51.2649111 L22,48 Z" id="Rectangle" fill="#0091FA"></path>
                    </g>
                </g>
            </g>
        </g>
    </g>
</svg>