<?xml version="1.0" encoding="UTF-8"?>
<svg width="80px" height="80px" viewBox="0 0 80 80" version="1.1" xmlns="http://www.w3.org/2000/svg" xmlns:xlink="http://www.w3.org/1999/xlink">
    <!-- Generator: Sketch 53.2 (72643) - https://sketchapp.com -->
    <title>Combined Shape</title>
    <desc>Created with Sketch.</desc>
    <g id="Page-1" stroke="none" stroke-width="1" fill="none" fill-rule="evenodd">
        <g id="dsfff/1-copy-29" transform="translate(-50.000000, -50.000000)" fill="#CCEAFF" fill-rule="nonzero">
            <g id="Group" transform="translate(-0.000000, 0.000000)">
                <path d="M64,122 L68,122 C69.1045695,122 70,122.895431 70,124 L70,128 C70,129.104569 69.1045695,130 68,130 L64,130 C62.8954305,130 62,129.104569 62,128 L62,124 C62,122.895431 62.8954305,122 64,122 Z M80,122 L84,122 C85.1045695,122 86,122.895431 86,124 L86,128 C86,129.104569 85.1045695,130 84,130 L80,130 C78.8954305,130 78,129.104569 78,128 L78,124 C78,122.895431 78.8954305,122 80,122 Z M96,122 L100,122 C101.104569,122 102,122.895431 102,124 L102,128 C102,129.104569 101.104569,130 100,130 L96,130 C94.8954305,130 94,129.104569 94,128 L94,124 C94,122.895431 94.8954305,122 96,122 Z M112,122 L116,122 C117.104569,122 118,122.895431 118,124 L118,128 C118,129.104569 117.104569,130 116,130 L112,130 C110.895431,130 110,129.104569 110,128 L110,124 C110,122.895431 110.895431,122 112,122 Z M64,50 L68,50 C69.1045695,50 70,50.8954305 70,52 L70,56 C70,57.1045695 69.1045695,58 68,58 L64,58 C62.8954305,58 62,57.1045695 62,56 L62,52 C62,50.8954305 62.8954305,50 64,50 Z M80,50 L84,50 C85.1045695,50 86,50.8954305 86,52 L86,56 C86,57.1045695 85.1045695,58 84,58 L80,58 C78.8954305,58 78,57.1045695 78,56 L78,52 C78,50.8954305 78.8954305,50 80,50 Z M96,50 L100,50 C101.104569,50 102,50.8954305 102,52 L102,56 C102,57.1045695 101.104569,58 100,58 L96,58 C94.8954305,58 94,57.1045695 94,56 L94,52 C94,50.8954305 94.8954305,50 96,50 Z M112,50 L116,50 C117.104569,50 118,50.8954305 118,52 L118,56 C118,57.1045695 117.104569,58 116,58 L112,58 C110.895431,58 110,57.1045695 110,56 L110,52 C110,50.8954305 110.895431,50 112,50 Z M58,64 L58,68 C58,69.1045695 57.1045695,70 56,70 L52,70 C50.8954305,70 50,69.1045695 50,68 L50,64 C50,62.8954305 50.8954305,62 52,62 L56,62 C57.1045695,62 58,62.8954305 58,64 Z M58,80 L58,84 C58,85.1045695 57.1045695,86 56,86 L52,86 C50.8954305,86 50,85.1045695 50,84 L50,80 C50,78.8954305 50.8954305,78 52,78 L56,78 C57.1045695,78 58,78.8954305 58,80 Z M58,96 L58,100 C58,101.104569 57.1045695,102 56,102 L52,102 C50.8954305,102 50,101.104569 50,100 L50,96 C50,94.8954305 50.8954305,94 52,94 L56,94 C57.1045695,94 58,94.8954305 58,96 Z M58,112 L58,116 C58,117.104569 57.1045695,118 56,118 L52,118 C50.8954305,118 50,117.104569 50,116 L50,112 C50,110.895431 50.8954305,110 52,110 L56,110 C57.1045695,110 58,110.895431 58,112 Z M130,64 L130,68 C130,69.1045695 129.104569,70 128,70 L124,70 C122.895431,70 122,69.1045695 122,68 L122,64 C122,62.8954305 122.895431,62 124,62 L128,62 C129.104569,62 130,62.8954305 130,64 Z M130,80 L130,84 C130,85.1045695 129.104569,86 128,86 L124,86 C122.895431,86 122,85.1045695 122,84 L122,80 C122,78.8954305 122.895431,78 124,78 L128,78 C129.104569,78 130,78.8954305 130,80 Z M130,96 L130,100 C130,101.104569 129.104569,102 128,102 L124,102 C122.895431,102 122,101.104569 122,100 L122,96 C122,94.8954305 122.895431,94 124,94 L128,94 C129.104569,94 130,94.8954305 130,96 Z M130,112 L130,116 C130,117.104569 129.104569,118 128,118 L124,118 C122.895431,118 122,117.104569 122,116 L122,112 C122,110.895431 122.895431,110 124,110 L128,110 C129.104569,110 130,110.895431 130,112 Z" id="Combined-Shape"></path>
            </g>
        </g>
    </g>
</svg>