<?xml version="1.0" encoding="UTF-8"?>
<svg width="72px" height="72px" viewBox="0 0 72 72" version="1.1" xmlns="http://www.w3.org/2000/svg" xmlns:xlink="http://www.w3.org/1999/xlink">
    <!-- Generator: Sketch 53.2 (72643) - https://sketchapp.com -->
    <title>Path</title>
    <desc>Created with Sketch.</desc>
    <g id="Page-1" stroke="none" stroke-width="1" fill="none" fill-rule="evenodd">
        <g id="dsfff/1-copy-29" transform="translate(-54.000000, -54.000000)" fill="#99D3FD" fill-rule="nonzero">
            <g id="Group" transform="translate(-0.000000, 0.000000)">
                <path d="M69.5994228,58 C68.5385568,58 67.5211412,58.4214274 66.7709957,59.1715729 L59.1715729,66.7709957 C58.4214274,67.5211412 58,68.5385568 58,69.5994228 L58,110.400577 C58,111.461443 58.4214274,112.478859 59.1715729,113.229004 L66.7709957,120.828427 C67.5211412,121.578573 68.5385568,122 69.5994228,122 L110.400577,122 C111.461443,122 112.478859,121.578573 113.229004,120.828427 L120.828427,113.229004 C121.578573,112.478859 122,111.461443 122,110.400577 L122,69.5994228 C122,68.5385568 121.578573,67.5211412 120.828427,66.7709957 L113.229004,59.1715729 C112.478859,58.4214274 111.461443,58 110.400577,58 L69.5994228,58 Z M69.5994228,54 L110.400577,54 C112.522309,54 114.55714,54.8428547 116.057431,56.3431458 L123.656854,63.9425685 C125.157145,65.4428596 126,67.4776909 126,69.5994228 L126,110.400577 C126,112.522309 125.157145,114.55714 123.656854,116.057431 L116.057431,123.656854 C114.55714,125.157145 112.522309,126 110.400577,126 L69.5994228,126 C67.4776909,126 65.4428596,125.157145 63.9425685,123.656854 L56.3431458,116.057431 C54.8428547,114.55714 54,112.522309 54,110.400577 L54,69.5994228 C54,67.4776909 54.8428547,65.4428596 56.3431458,63.9425685 L63.9425685,56.3431458 C65.4428596,54.8428547 67.4776909,54 69.5994228,54 Z" id="Path"></path>
            </g>
        </g>
    </g>
</svg>